<svg width="323" height="44" viewBox="0 0 323 44" fill="none" xmlns="http://www.w3.org/2000/svg">
<line y1="21.5" x2="323.002" y2="21.5" stroke="black"/>
<rect x="129" width="60" height="44" fill="white"/>
<path d="M159.08 21.2727C159.08 23.1364 158.739 24.7386 158.057 26.0795C157.375 27.4148 156.44 28.4432 155.253 29.1648C154.071 29.8807 152.727 30.2386 151.222 30.2386C149.71 30.2386 148.361 29.8807 147.173 29.1648C145.991 28.4432 145.06 27.4119 144.378 26.071C143.696 24.7301 143.355 23.1307 143.355 21.2727C143.355 19.4091 143.696 17.8097 144.378 16.4744C145.06 15.1335 145.991 14.1051 147.173 13.3892C148.361 12.6676 149.71 12.3068 151.222 12.3068C152.727 12.3068 154.071 12.6676 155.253 13.3892C156.44 14.1051 157.375 15.1335 158.057 16.4744C158.739 17.8097 159.08 19.4091 159.08 21.2727ZM156.472 21.2727C156.472 19.8523 156.241 18.6562 155.781 17.6847C155.327 16.7074 154.702 15.9688 153.906 15.4688C153.116 14.9631 152.222 14.7102 151.222 14.7102C150.216 14.7102 149.318 14.9631 148.528 15.4688C147.739 15.9688 147.114 16.7074 146.653 17.6847C146.199 18.6562 145.972 19.8523 145.972 21.2727C145.972 22.6932 146.199 23.892 146.653 24.8693C147.114 25.8409 147.739 26.5795 148.528 27.0852C149.318 27.5852 150.216 27.8352 151.222 27.8352C152.222 27.8352 153.116 27.5852 153.906 27.0852C154.702 26.5795 155.327 25.8409 155.781 24.8693C156.241 23.892 156.472 22.6932 156.472 21.2727ZM162.363 30V12.5455H168.585C169.937 12.5455 171.059 12.7784 171.951 13.2443C172.849 13.7102 173.519 14.3551 173.962 15.179C174.406 15.9972 174.627 16.9432 174.627 18.017C174.627 19.0852 174.403 20.0256 173.954 20.8381C173.511 21.6449 172.84 22.2727 171.942 22.7216C171.05 23.1705 169.928 23.3949 168.576 23.3949H163.863V21.1278H168.337C169.19 21.1278 169.883 21.0057 170.417 20.7614C170.957 20.517 171.352 20.1619 171.602 19.696C171.852 19.2301 171.977 18.6705 171.977 18.017C171.977 17.358 171.849 16.7869 171.593 16.304C171.343 15.821 170.948 15.4517 170.408 15.196C169.874 14.9347 169.173 14.804 168.303 14.804H164.996V30H162.363ZM170.979 22.125L175.292 30H172.292L168.065 22.125H170.979Z" fill="black"/>
</svg>
