<svg width="402" height="70" viewBox="0 0 402 70" fill="none" xmlns="http://www.w3.org/2000/svg">
<g filter="url(#filter0_i_257_5)">
<rect width="402" height="70" rx="20" fill="white" fill-opacity="0.2"/>
</g>
<rect x="0.5" y="0.5" width="401" height="69" rx="19.5" stroke="#171717"/>
<path d="M94.816 43.384C92.272 43.384 90.144 42.528 88.432 40.816C86.736 39.104 85.888 36.968 85.888 34.408C85.888 31.848 86.736 29.72 88.432 28.024C90.128 26.296 92.256 25.432 94.816 25.432C97.408 25.432 99.512 26.368 101.128 28.24L99.544 29.776C98.312 28.288 96.736 27.544 94.816 27.544C92.912 27.544 91.32 28.184 90.04 29.464C88.776 30.728 88.144 32.376 88.144 34.408C88.144 36.44 88.776 38.088 90.04 39.352C91.32 40.632 92.912 41.272 94.816 41.272C96.816 41.272 98.552 40.432 100.024 38.752L101.632 40.312C100.816 41.288 99.816 42.048 98.632 42.592C97.448 43.12 96.176 43.384 94.816 43.384ZM102.688 37.12C102.688 35.312 103.256 33.816 104.392 32.632C105.544 31.448 106.992 30.856 108.736 30.856C110.48 30.856 111.92 31.448 113.056 32.632C114.208 33.816 114.784 35.312 114.784 37.12C114.784 38.944 114.208 40.44 113.056 41.608C111.92 42.792 110.48 43.384 108.736 43.384C106.992 43.384 105.544 42.792 104.392 41.608C103.256 40.424 102.688 38.928 102.688 37.12ZM104.896 37.12C104.896 38.384 105.264 39.408 106 40.192C106.736 40.976 107.648 41.368 108.736 41.368C109.824 41.368 110.736 40.976 111.472 40.192C112.208 39.408 112.576 38.384 112.576 37.12C112.576 35.872 112.208 34.856 111.472 34.072C110.72 33.272 109.808 32.872 108.736 32.872C107.664 32.872 106.752 33.272 106 34.072C105.264 34.856 104.896 35.872 104.896 37.12ZM116.555 31.24H118.667V32.872H118.763C119.099 32.296 119.611 31.816 120.299 31.432C121.003 31.048 121.731 30.856 122.483 30.856C123.923 30.856 125.027 31.272 125.795 32.104C126.579 32.92 126.971 34.088 126.971 35.608V43H124.763V35.752C124.715 33.832 123.747 32.872 121.859 32.872C120.979 32.872 120.243 33.232 119.651 33.952C119.059 34.656 118.763 35.504 118.763 36.496V43H116.555V31.24ZM133.609 43.192C132.649 43.192 131.849 42.896 131.209 42.304C130.585 41.712 130.265 40.888 130.249 39.832V33.256H128.185V31.24H130.249V27.64H132.457V31.24H135.337V33.256H132.457V39.112C132.457 39.896 132.609 40.432 132.913 40.72C133.217 40.992 133.561 41.128 133.945 41.128C134.121 41.128 134.289 41.112 134.449 41.08C134.625 41.032 134.785 40.976 134.929 40.912L135.625 42.88C135.049 43.088 134.377 43.192 133.609 43.192ZM140.411 27.184C140.411 27.616 140.259 27.984 139.955 28.288C139.651 28.592 139.283 28.744 138.851 28.744C138.419 28.744 138.051 28.592 137.747 28.288C137.443 27.984 137.291 27.616 137.291 27.184C137.291 26.752 137.443 26.384 137.747 26.08C138.051 25.776 138.419 25.624 138.851 25.624C139.283 25.624 139.651 25.776 139.955 26.08C140.259 26.384 140.411 26.752 140.411 27.184ZM139.955 31.24V43H137.747V31.24H139.955ZM142.828 31.24H144.94V32.872H145.036C145.372 32.296 145.884 31.816 146.572 31.432C147.276 31.048 148.004 30.856 148.756 30.856C150.196 30.856 151.3 31.272 152.068 32.104C152.852 32.92 153.244 34.088 153.244 35.608V43H151.036V35.752C150.988 33.832 150.02 32.872 148.132 32.872C147.252 32.872 146.516 33.232 145.924 33.952C145.332 34.656 145.036 35.504 145.036 36.496V43H142.828V31.24ZM166.156 43H164.044V41.368H163.948C163.612 41.944 163.092 42.424 162.388 42.808C161.7 43.192 160.98 43.384 160.228 43.384C158.788 43.384 157.676 42.976 156.892 42.16C156.124 41.328 155.74 40.152 155.74 38.632V31.24H157.948V38.488C157.996 40.408 158.964 41.368 160.852 41.368C161.732 41.368 162.468 41.016 163.06 40.312C163.652 39.592 163.948 38.736 163.948 37.744V31.24H166.156V43ZM174.007 43.384C172.279 43.384 170.855 42.792 169.735 41.608C168.615 40.424 168.055 38.928 168.055 37.12C168.055 35.328 168.599 33.84 169.687 32.656C170.775 31.456 172.167 30.856 173.863 30.856C175.607 30.856 176.991 31.424 178.015 32.56C179.055 33.68 179.575 35.256 179.575 37.288L179.551 37.528H170.311C170.343 38.68 170.727 39.608 171.463 40.312C172.199 41.016 173.079 41.368 174.103 41.368C175.511 41.368 176.615 40.664 177.415 39.256L179.383 40.216C178.855 41.208 178.119 41.984 177.175 42.544C176.247 43.104 175.191 43.384 174.007 43.384ZM170.479 35.704H177.223C177.159 34.888 176.823 34.216 176.215 33.688C175.623 33.144 174.823 32.872 173.815 32.872C172.983 32.872 172.263 33.128 171.655 33.64C171.063 34.152 170.671 34.84 170.479 35.704ZM203.523 31.24L199.731 43H197.475L194.547 33.976L191.643 43H189.411L185.619 31.24H187.923L190.539 40.12H190.563L193.467 31.24H195.747L198.651 40.12H198.675L201.267 31.24H203.523ZM207.817 27.184C207.817 27.616 207.665 27.984 207.361 28.288C207.057 28.592 206.689 28.744 206.257 28.744C205.825 28.744 205.457 28.592 205.153 28.288C204.849 27.984 204.697 27.616 204.697 27.184C204.697 26.752 204.849 26.384 205.153 26.08C205.457 25.776 205.825 25.624 206.257 25.624C206.689 25.624 207.057 25.776 207.361 26.08C207.665 26.384 207.817 26.752 207.817 27.184ZM207.361 31.24V43H205.153V31.24H207.361ZM214.773 43.192C213.813 43.192 213.013 42.896 212.373 42.304C211.749 41.712 211.429 40.888 211.413 39.832V33.256H209.349V31.24H211.413V27.64H213.621V31.24H216.501V33.256H213.621V39.112C213.621 39.896 213.773 40.432 214.077 40.72C214.381 40.992 214.725 41.128 215.109 41.128C215.285 41.128 215.453 41.112 215.613 41.08C215.789 41.032 215.949 40.976 216.093 40.912L216.789 42.88C216.213 43.088 215.541 43.192 214.773 43.192ZM218.719 25.816H220.927V31.24L220.831 32.872H220.927C221.263 32.296 221.775 31.816 222.463 31.432C223.167 31.048 223.895 30.856 224.647 30.856C226.087 30.856 227.191 31.272 227.959 32.104C228.743 32.92 229.135 34.088 229.135 35.608V43H226.927V36.04C226.927 33.928 225.991 32.872 224.119 32.872C223.223 32.872 222.463 33.248 221.839 34C221.231 34.736 220.927 35.6 220.927 36.592V43H218.719V25.816Z" fill="#171717"/>
<path d="M245.544 33.568H253.968C254.016 33.76 254.056 33.992 254.088 34.264C254.12 34.536 254.136 34.808 254.136 35.08C254.136 36.184 253.968 37.224 253.632 38.2C253.296 39.176 252.768 40.048 252.048 40.816C251.28 41.632 250.36 42.264 249.288 42.712C248.216 43.16 246.992 43.384 245.616 43.384C244.368 43.384 243.192 43.16 242.088 42.712C240.984 42.264 240.024 41.64 239.208 40.84C238.392 40.04 237.744 39.096 237.264 38.008C236.784 36.904 236.544 35.704 236.544 34.408C236.544 33.112 236.784 31.92 237.264 30.832C237.744 29.728 238.392 28.776 239.208 27.976C240.024 27.176 240.984 26.552 242.088 26.104C243.192 25.656 244.368 25.432 245.616 25.432C247.008 25.432 248.248 25.672 249.336 26.152C250.44 26.632 251.384 27.296 252.168 28.144L249.936 30.328C249.376 29.736 248.752 29.288 248.064 28.984C247.376 28.664 246.552 28.504 245.592 28.504C244.808 28.504 244.064 28.648 243.36 28.936C242.656 29.208 242.04 29.6 241.512 30.112C240.984 30.624 240.56 31.248 240.24 31.984C239.936 32.704 239.784 33.512 239.784 34.408C239.784 35.304 239.936 36.12 240.24 36.856C240.56 37.576 240.984 38.192 241.512 38.704C242.056 39.216 242.68 39.616 243.384 39.904C244.088 40.176 244.84 40.312 245.64 40.312C246.552 40.312 247.32 40.184 247.944 39.928C248.584 39.656 249.128 39.312 249.576 38.896C249.896 38.608 250.168 38.248 250.392 37.816C250.632 37.368 250.816 36.872 250.944 36.328H245.544V33.568ZM289.393 48.568C288.561 48.568 287.817 48.456 287.161 48.232C286.521 48.024 285.961 47.744 285.481 47.392C285.001 47.056 284.601 46.68 284.281 46.264C283.961 45.848 283.729 45.432 283.585 45.016L286.585 43.816C286.809 44.44 287.177 44.92 287.689 45.256C288.201 45.608 288.769 45.784 289.393 45.784C290.385 45.784 291.169 45.472 291.745 44.848C292.321 44.24 292.609 43.384 292.609 42.28V41.464H292.417C292.049 41.976 291.561 42.384 290.953 42.688C290.361 42.976 289.657 43.12 288.841 43.12C288.137 43.12 287.449 42.976 286.777 42.688C286.121 42.4 285.537 41.992 285.025 41.464C284.513 40.92 284.097 40.272 283.777 39.52C283.457 38.768 283.297 37.928 283.297 37C283.297 36.072 283.457 35.232 283.777 34.48C284.097 33.712 284.513 33.064 285.025 32.536C285.537 31.992 286.121 31.576 286.777 31.288C287.449 31 288.137 30.856 288.841 30.856C289.657 30.856 290.361 31.008 290.953 31.312C291.561 31.6 292.049 32 292.417 32.512H292.609V31.24H295.609V42.16C295.609 43.152 295.457 44.04 295.153 44.824C294.849 45.624 294.425 46.296 293.881 46.84C293.337 47.4 292.681 47.824 291.913 48.112C291.161 48.416 290.321 48.568 289.393 48.568ZM289.513 40.288C289.897 40.288 290.273 40.216 290.641 40.072C291.025 39.928 291.361 39.72 291.649 39.448C291.937 39.16 292.169 38.816 292.345 38.416C292.521 38 292.609 37.528 292.609 37C292.609 36.472 292.521 36 292.345 35.584C292.169 35.168 291.937 34.824 291.649 34.552C291.361 34.264 291.025 34.048 290.641 33.904C290.273 33.76 289.897 33.688 289.513 33.688C289.129 33.688 288.753 33.76 288.385 33.904C288.017 34.048 287.689 34.264 287.401 34.552C287.113 34.84 286.881 35.192 286.705 35.608C286.529 36.008 286.441 36.472 286.441 37C286.441 37.528 286.529 38 286.705 38.416C286.881 38.816 287.113 39.16 287.401 39.448C287.689 39.72 288.017 39.928 288.385 40.072C288.753 40.216 289.129 40.288 289.513 40.288Z" fill="#4285F4"/>
<path d="M261.881 30.856C262.793 30.856 263.625 31.016 264.377 31.336C265.145 31.64 265.801 32.072 266.345 32.632C266.905 33.176 267.337 33.832 267.641 34.6C267.961 35.368 268.121 36.208 268.121 37.12C268.121 38.032 267.961 38.872 267.641 39.64C267.337 40.408 266.905 41.072 266.345 41.632C265.801 42.176 265.145 42.608 264.377 42.928C263.625 43.232 262.793 43.384 261.881 43.384C260.969 43.384 260.129 43.232 259.361 42.928C258.609 42.608 257.953 42.176 257.393 41.632C256.849 41.072 256.417 40.408 256.097 39.64C255.793 38.872 255.641 38.032 255.641 37.12C255.641 36.208 255.793 35.368 256.097 34.6C256.417 33.832 256.849 33.176 257.393 32.632C257.953 32.072 258.609 31.64 259.361 31.336C260.129 31.016 260.969 30.856 261.881 30.856ZM261.881 40.48C262.281 40.48 262.665 40.408 263.033 40.264C263.417 40.104 263.753 39.88 264.041 39.592C264.329 39.304 264.553 38.952 264.713 38.536C264.889 38.12 264.977 37.648 264.977 37.12C264.977 36.592 264.889 36.12 264.713 35.704C264.553 35.288 264.329 34.936 264.041 34.648C263.753 34.36 263.417 34.144 263.033 34C262.665 33.84 262.281 33.76 261.881 33.76C261.465 33.76 261.073 33.84 260.705 34C260.337 34.144 260.009 34.36 259.721 34.648C259.433 34.936 259.201 35.288 259.025 35.704C258.865 36.12 258.785 36.592 258.785 37.12C258.785 37.648 258.865 38.12 259.025 38.536C259.201 38.952 259.433 39.304 259.721 39.592C260.009 39.88 260.337 40.104 260.705 40.264C261.073 40.408 261.465 40.48 261.881 40.48ZM315.144 40.168C314.6 41.128 313.864 41.904 312.936 42.496C312.024 43.088 310.904 43.384 309.576 43.384C308.68 43.384 307.848 43.232 307.08 42.928C306.328 42.608 305.672 42.168 305.112 41.608C304.552 41.048 304.112 40.392 303.792 39.64C303.488 38.872 303.336 38.032 303.336 37.12C303.336 36.272 303.488 35.472 303.792 34.72C304.096 33.952 304.52 33.288 305.064 32.728C305.608 32.152 306.248 31.696 306.984 31.36C307.736 31.024 308.56 30.856 309.456 30.856C310.4 30.856 311.24 31.016 311.976 31.336C312.712 31.64 313.328 32.072 313.824 32.632C314.32 33.176 314.696 33.824 314.952 34.576C315.208 35.328 315.336 36.144 315.336 37.024C315.336 37.136 315.336 37.232 315.336 37.312C315.32 37.408 315.312 37.496 315.312 37.576C315.296 37.656 315.288 37.744 315.288 37.84H306.432C306.496 38.32 306.624 38.736 306.816 39.088C307.024 39.424 307.272 39.712 307.56 39.952C307.864 40.176 308.192 40.344 308.544 40.456C308.896 40.552 309.256 40.6 309.624 40.6C310.344 40.6 310.936 40.44 311.4 40.12C311.88 39.784 312.256 39.368 312.528 38.872L315.144 40.168ZM312.288 35.608C312.272 35.4 312.2 35.168 312.072 34.912C311.96 34.656 311.784 34.416 311.544 34.192C311.32 33.968 311.032 33.784 310.68 33.64C310.344 33.496 309.936 33.424 309.456 33.424C308.784 33.424 308.192 33.616 307.68 34C307.168 34.384 306.808 34.92 306.6 35.608H312.288Z" fill="#EA4335"/>
<path d="M275.709 30.856C276.621 30.856 277.453 31.016 278.205 31.336C278.973 31.64 279.629 32.072 280.173 32.632C280.733 33.176 281.165 33.832 281.469 34.6C281.789 35.368 281.949 36.208 281.949 37.12C281.949 38.032 281.789 38.872 281.469 39.64C281.165 40.408 280.733 41.072 280.173 41.632C279.629 42.176 278.973 42.608 278.205 42.928C277.453 43.232 276.621 43.384 275.709 43.384C274.797 43.384 273.957 43.232 273.189 42.928C272.437 42.608 271.781 42.176 271.221 41.632C270.677 41.072 270.245 40.408 269.925 39.64C269.621 38.872 269.469 38.032 269.469 37.12C269.469 36.208 269.621 35.368 269.925 34.6C270.245 33.832 270.677 33.176 271.221 32.632C271.781 32.072 272.437 31.64 273.189 31.336C273.957 31.016 274.797 30.856 275.709 30.856ZM275.709 40.48C276.109 40.48 276.493 40.408 276.861 40.264C277.245 40.104 277.581 39.88 277.869 39.592C278.157 39.304 278.381 38.952 278.541 38.536C278.717 38.12 278.805 37.648 278.805 37.12C278.805 36.592 278.717 36.12 278.541 35.704C278.381 35.288 278.157 34.936 277.869 34.648C277.581 34.36 277.245 34.144 276.861 34C276.493 33.84 276.109 33.76 275.709 33.76C275.293 33.76 274.901 33.84 274.533 34C274.165 34.144 273.837 34.36 273.549 34.648C273.261 34.936 273.029 35.288 272.853 35.704C272.693 36.12 272.613 36.592 272.613 37.12C272.613 37.648 272.693 38.12 272.853 38.536C273.029 38.952 273.261 39.304 273.549 39.592C273.837 39.88 274.165 40.104 274.533 40.264C274.901 40.408 275.293 40.48 275.709 40.48Z" fill="#FBBC05"/>
<path d="M298.289 43V25.816H301.433V43H298.289Z" fill="#34A853"/>
<defs>
<filter id="filter0_i_257_5" x="0" y="0" width="402" height="70" filterUnits="userSpaceOnUse" color-interpolation-filters="sRGB">
<feFlood flood-opacity="0" result="BackgroundImageFix"/>
<feBlend mode="normal" in="SourceGraphic" in2="BackgroundImageFix" result="shape"/>
<feColorMatrix in="SourceAlpha" type="matrix" values="0 0 0 0 0 0 0 0 0 0 0 0 0 0 0 0 0 0 127 0" result="hardAlpha"/>
<feOffset/>
<feGaussianBlur stdDeviation="6.8"/>
<feComposite in2="hardAlpha" operator="arithmetic" k2="-1" k3="1"/>
<feColorMatrix type="matrix" values="0 0 0 0 0 0 0 0 0 0 0 0 0 0 0 0 0 0 0.25 0"/>
<feBlend mode="normal" in2="shape" result="effect1_innerShadow_257_5"/>
</filter>
</defs>
</svg>
