<svg width="60" height="60" viewBox="0 0 60 60" fill="none" xmlns="http://www.w3.org/2000/svg">
<mask id="mask0_75_240" style="mask-type:alpha" maskUnits="userSpaceOnUse" x="0" y="0" width="60" height="60">
<rect width="60" height="60" fill="#D9D9D9"/>
</mask>
<g mask="url(#mask0_75_240)">
<path d="M17.5 50.0625V27.5H21.5C21.7917 27.5 22.0833 27.5313 22.375 27.5938C22.6667 27.6563 22.9583 27.7292 23.25 27.8125L40.5625 34.25C41.1458 34.4583 41.6146 34.8333 41.9688 35.375C42.3229 35.9167 42.5 36.4792 42.5 37.0625C42.5 37.9375 42.1979 38.6458 41.5938 39.1875C40.9896 39.7292 40.2917 40 39.5 40H32.9375C32.7292 40 32.5729 39.9896 32.4688 39.9688C32.3646 39.9479 32.2292 39.8958 32.0625 39.8125L28.0625 38.25L27.25 40.6875L32.0625 42.375C32.1458 42.4167 32.2708 42.4479 32.4375 42.4688C32.6042 42.4896 32.75 42.5 32.875 42.5H50C51.3333 42.5 52.5 42.9792 53.5 43.9375C54.5 44.8958 55 46.0833 55 47.5L35.0625 55L17.5 50.0625ZM2.5 55V27.5H12.5V55H2.5ZM32.3125 27.625L21.6875 17L25.25 13.5L32.3125 20.5625L46.5 6.4375L50 9.9375L32.3125 27.625Z" fill="#FA9907"/>
</g>
</svg>
