<svg width="446" height="421" viewBox="0 0 446 421" fill="none" xmlns="http://www.w3.org/2000/svg">
<line y1="21.5" x2="446" y2="21.5" stroke="black"/>
<rect x="71" width="298" height="44" fill="white"/>
<path d="M102.299 30V12.5455H108.521C109.879 12.5455 111.004 12.7926 111.896 13.2869C112.788 13.7812 113.455 14.4574 113.899 15.3153C114.342 16.1676 114.563 17.1278 114.563 18.196C114.563 19.2699 114.339 20.2358 113.89 21.0938C113.447 21.946 112.776 22.6222 111.879 23.1222C110.987 23.6165 109.865 23.8636 108.512 23.8636H104.234V21.6307H108.274C109.132 21.6307 109.828 21.483 110.362 21.1875C110.896 20.8864 111.288 20.4773 111.538 19.9602C111.788 19.4432 111.913 18.8551 111.913 18.196C111.913 17.5369 111.788 16.9517 111.538 16.4403C111.288 15.929 110.893 15.5284 110.353 15.2386C109.819 14.9489 109.115 14.804 108.24 14.804H104.933V30H102.299ZM120.531 30V12.5455H123.164V27.733H131.073V30H120.531ZM136.958 30V12.5455H147.901V14.8125H139.591V20.1307H147.33V22.3892H139.591V27.733H148.003V30H136.958ZM155.773 30H152.978L159.259 12.5455H162.301L168.583 30H165.787L160.853 15.7159H160.716L155.773 30ZM156.242 23.1648H165.31V25.3807H156.242V23.1648ZM183.363 17.1307C183.272 16.3239 182.897 15.6989 182.238 15.2557C181.578 14.8068 180.749 14.5824 179.749 14.5824C179.033 14.5824 178.414 14.696 177.891 14.9233C177.368 15.1449 176.962 15.4517 176.672 15.8438C176.388 16.2301 176.246 16.6705 176.246 17.1648C176.246 17.5795 176.343 17.9375 176.536 18.2386C176.735 18.5398 176.993 18.7926 177.311 18.9972C177.635 19.196 177.982 19.3636 178.351 19.5C178.72 19.6307 179.076 19.7386 179.416 19.8239L181.121 20.267C181.678 20.4034 182.249 20.5881 182.834 20.821C183.419 21.054 183.962 21.3608 184.462 21.7415C184.962 22.1222 185.365 22.5938 185.672 23.1562C185.985 23.7188 186.141 24.392 186.141 25.1761C186.141 26.1648 185.885 27.0426 185.374 27.8097C184.868 28.5767 184.132 29.1818 183.166 29.625C182.206 30.0682 181.044 30.2898 179.681 30.2898C178.374 30.2898 177.243 30.0824 176.289 29.6676C175.334 29.2528 174.587 28.6648 174.047 27.9034C173.507 27.1364 173.209 26.2273 173.152 25.1761H175.794C175.845 25.8068 176.05 26.3324 176.408 26.7528C176.772 27.1676 177.235 27.4773 177.797 27.6818C178.365 27.8807 178.988 27.9801 179.664 27.9801C180.408 27.9801 181.07 27.8636 181.649 27.6307C182.235 27.392 182.695 27.0625 183.03 26.642C183.365 26.2159 183.533 25.7187 183.533 25.1506C183.533 24.6335 183.385 24.2102 183.09 23.8807C182.8 23.5511 182.405 23.2784 181.905 23.0625C181.411 22.8466 180.851 22.6562 180.226 22.4915L178.164 21.929C176.766 21.5483 175.658 20.9886 174.84 20.25C174.027 19.5114 173.621 18.5341 173.621 17.3182C173.621 16.3125 173.894 15.4347 174.439 14.6847C174.985 13.9347 175.723 13.3523 176.655 12.9375C177.587 12.517 178.638 12.3068 179.809 12.3068C180.99 12.3068 182.033 12.5142 182.936 12.929C183.845 13.3438 184.561 13.9148 185.084 14.642C185.607 15.3636 185.88 16.1932 185.902 17.1307H183.363ZM192.168 30V12.5455H203.111V14.8125H194.801V20.1307H202.54V22.3892H194.801V27.733H203.213V30H192.168ZM218.74 30V12.5455H224.962C226.32 12.5455 227.445 12.7926 228.337 13.2869C229.229 13.7812 229.897 14.4574 230.34 15.3153C230.783 16.1676 231.005 17.1278 231.005 18.196C231.005 19.2699 230.78 20.2358 230.331 21.0938C229.888 21.946 229.218 22.6222 228.32 23.1222C227.428 23.6165 226.306 23.8636 224.953 23.8636H220.675V21.6307H224.715C225.573 21.6307 226.269 21.483 226.803 21.1875C227.337 20.8864 227.729 20.4773 227.979 19.9602C228.229 19.4432 228.354 18.8551 228.354 18.196C228.354 17.5369 228.229 16.9517 227.979 16.4403C227.729 15.929 227.334 15.5284 226.794 15.2386C226.26 14.9489 225.556 14.804 224.681 14.804H221.374V30H218.74ZM236.972 30V12.5455H243.194C244.546 12.5455 245.668 12.7784 246.56 13.2443C247.458 13.7102 248.128 14.3551 248.571 15.179C249.015 15.9972 249.236 16.9432 249.236 18.017C249.236 19.0852 249.012 20.0256 248.563 20.8381C248.12 21.6449 247.449 22.2727 246.552 22.7216C245.659 23.1705 244.537 23.3949 243.185 23.3949H238.472V21.1278H242.946C243.799 21.1278 244.492 21.0057 245.026 20.7614C245.566 20.517 245.961 20.1619 246.211 19.696C246.461 19.2301 246.586 18.6705 246.586 18.017C246.586 17.358 246.458 16.7869 246.202 16.304C245.952 15.821 245.557 15.4517 245.017 15.196C244.483 14.9347 243.782 14.804 242.912 14.804H239.606V30H236.972ZM245.588 22.125L249.901 30H246.901L242.674 22.125H245.588ZM255.321 30V12.5455H266.264V14.8125H257.954V20.1307H265.693V22.3892H257.954V27.733H266.366V30H255.321ZM272.662 30V12.5455H278.883C280.241 12.5455 281.366 12.7926 282.258 13.2869C283.15 13.7812 283.818 14.4574 284.261 15.3153C284.704 16.1676 284.926 17.1278 284.926 18.196C284.926 19.2699 284.701 20.2358 284.253 21.0938C283.809 21.946 283.139 22.6222 282.241 23.1222C281.349 23.6165 280.227 23.8636 278.875 23.8636H274.596V21.6307H278.636C279.494 21.6307 280.19 21.483 280.724 21.1875C281.258 20.8864 281.65 20.4773 281.9 19.9602C282.15 19.4432 282.275 18.8551 282.275 18.196C282.275 17.5369 282.15 16.9517 281.9 16.4403C281.65 15.929 281.255 15.5284 280.716 15.2386C280.182 14.9489 279.477 14.804 278.602 14.804H275.295V30H272.662ZM290.516 30H287.721L294.002 12.5455H297.045L303.326 30H300.53L295.596 15.7159H295.459L290.516 30ZM290.985 23.1648H300.053V25.3807H290.985V23.1648ZM308.726 30V12.5455H314.948C316.3 12.5455 317.422 12.7784 318.314 13.2443C319.212 13.7102 319.883 14.3551 320.326 15.179C320.769 15.9972 320.991 16.9432 320.991 18.017C320.991 19.0852 320.766 20.0256 320.317 20.8381C319.874 21.6449 319.204 22.2727 318.306 22.7216C317.414 23.1705 316.292 23.3949 314.939 23.3949H310.226V21.1278H314.701C315.553 21.1278 316.246 21.0057 316.78 20.7614C317.32 20.517 317.715 20.1619 317.965 19.696C318.215 19.2301 318.34 18.6705 318.34 18.017C318.34 17.358 318.212 16.7869 317.956 16.304C317.706 15.821 317.312 15.4517 316.772 15.196C316.238 14.9347 315.536 14.804 314.667 14.804H311.36V30H308.726ZM317.343 22.125L321.655 30H318.655L314.428 22.125H317.343ZM327.075 30V12.5455H338.018V14.8125H329.709V20.1307H337.447V22.3892H329.709V27.733H338.121V30H327.075Z" fill="black"/>
<path d="M156.415 116.222H153.756C153.653 115.653 153.463 115.153 153.185 114.722C152.906 114.29 152.565 113.923 152.162 113.622C151.759 113.321 151.307 113.094 150.807 112.94C150.313 112.787 149.787 112.71 149.23 112.71C148.224 112.71 147.324 112.963 146.528 113.469C145.739 113.974 145.114 114.716 144.653 115.693C144.199 116.67 143.972 117.864 143.972 119.273C143.972 120.693 144.199 121.892 144.653 122.869C145.114 123.847 145.741 124.585 146.537 125.085C147.332 125.585 148.227 125.835 149.222 125.835C149.773 125.835 150.295 125.761 150.79 125.614C151.29 125.46 151.741 125.236 152.145 124.94C152.548 124.645 152.889 124.284 153.168 123.858C153.452 123.426 153.648 122.932 153.756 122.375L156.415 122.384C156.273 123.241 155.997 124.031 155.588 124.753C155.185 125.469 154.665 126.088 154.028 126.611C153.398 127.128 152.676 127.528 151.864 127.812C151.051 128.097 150.165 128.239 149.205 128.239C147.693 128.239 146.347 127.881 145.165 127.165C143.983 126.443 143.051 125.412 142.369 124.071C141.693 122.73 141.355 121.131 141.355 119.273C141.355 117.409 141.696 115.81 142.378 114.474C143.06 113.134 143.991 112.105 145.173 111.389C146.355 110.668 147.699 110.307 149.205 110.307C150.131 110.307 150.994 110.44 151.795 110.707C152.602 110.969 153.327 111.355 153.969 111.866C154.611 112.372 155.142 112.991 155.562 113.724C155.983 114.452 156.267 115.284 156.415 116.222ZM164.876 128.264C163.648 128.264 162.577 127.983 161.663 127.42C160.748 126.858 160.038 126.071 159.532 125.06C159.026 124.048 158.773 122.866 158.773 121.514C158.773 120.156 159.026 118.969 159.532 117.952C160.038 116.935 160.748 116.145 161.663 115.582C162.577 115.02 163.648 114.739 164.876 114.739C166.103 114.739 167.174 115.02 168.089 115.582C169.004 116.145 169.714 116.935 170.219 117.952C170.725 118.969 170.978 120.156 170.978 121.514C170.978 122.866 170.725 124.048 170.219 125.06C169.714 126.071 169.004 126.858 168.089 127.42C167.174 127.983 166.103 128.264 164.876 128.264ZM164.884 126.125C165.68 126.125 166.339 125.915 166.862 125.494C167.384 125.074 167.771 124.514 168.021 123.815C168.276 123.116 168.404 122.347 168.404 121.506C168.404 120.67 168.276 119.903 168.021 119.205C167.771 118.5 167.384 117.935 166.862 117.509C166.339 117.082 165.68 116.869 164.884 116.869C164.083 116.869 163.418 117.082 162.89 117.509C162.367 117.935 161.978 118.5 161.722 119.205C161.472 119.903 161.347 120.67 161.347 121.506C161.347 122.347 161.472 123.116 161.722 123.815C161.978 124.514 162.367 125.074 162.89 125.494C163.418 125.915 164.083 126.125 164.884 126.125ZM173.822 132.909V114.909H176.311V117.031H176.524C176.672 116.759 176.885 116.443 177.163 116.085C177.442 115.727 177.828 115.415 178.322 115.148C178.817 114.875 179.47 114.739 180.283 114.739C181.339 114.739 182.283 115.006 183.112 115.54C183.942 116.074 184.592 116.844 185.064 117.849C185.541 118.855 185.78 120.065 185.78 121.48C185.78 122.895 185.544 124.108 185.072 125.119C184.601 126.125 183.953 126.901 183.129 127.446C182.305 127.986 181.365 128.256 180.308 128.256C179.513 128.256 178.862 128.122 178.357 127.855C177.857 127.588 177.464 127.276 177.18 126.918C176.896 126.56 176.678 126.241 176.524 125.963H176.371V132.909H173.822ZM176.32 121.455C176.32 122.375 176.453 123.182 176.72 123.875C176.987 124.568 177.374 125.111 177.879 125.503C178.385 125.889 179.004 126.082 179.737 126.082C180.499 126.082 181.135 125.881 181.646 125.477C182.158 125.068 182.544 124.514 182.805 123.815C183.072 123.116 183.206 122.33 183.206 121.455C183.206 120.591 183.075 119.815 182.814 119.128C182.558 118.44 182.172 117.898 181.655 117.5C181.143 117.102 180.504 116.903 179.737 116.903C178.999 116.903 178.374 117.094 177.862 117.474C177.357 117.855 176.973 118.386 176.712 119.068C176.45 119.75 176.32 120.545 176.32 121.455ZM189.8 132.909C189.42 132.909 189.073 132.878 188.761 132.815C188.448 132.759 188.215 132.696 188.062 132.628L188.675 130.54C189.141 130.665 189.556 130.719 189.92 130.702C190.283 130.685 190.604 130.548 190.883 130.293C191.167 130.037 191.417 129.619 191.633 129.04L191.948 128.17L187.158 114.909H189.886L193.201 125.068H193.337L196.653 114.909H199.388L193.994 129.747C193.744 130.429 193.425 131.006 193.039 131.477C192.653 131.955 192.192 132.313 191.658 132.551C191.124 132.79 190.505 132.909 189.8 132.909ZM213.649 128.264C212.422 128.264 211.351 127.983 210.436 127.42C209.521 126.858 208.811 126.071 208.305 125.06C207.8 124.048 207.547 122.866 207.547 121.514C207.547 120.156 207.8 118.969 208.305 117.952C208.811 116.935 209.521 116.145 210.436 115.582C211.351 115.02 212.422 114.739 213.649 114.739C214.876 114.739 215.947 115.02 216.862 115.582C217.777 116.145 218.487 116.935 218.993 117.952C219.499 118.969 219.751 120.156 219.751 121.514C219.751 122.866 219.499 124.048 218.993 125.06C218.487 126.071 217.777 126.858 216.862 127.42C215.947 127.983 214.876 128.264 213.649 128.264ZM213.658 126.125C214.453 126.125 215.112 125.915 215.635 125.494C216.158 125.074 216.544 124.514 216.794 123.815C217.05 123.116 217.178 122.347 217.178 121.506C217.178 120.67 217.05 119.903 216.794 119.205C216.544 118.5 216.158 117.935 215.635 117.509C215.112 117.082 214.453 116.869 213.658 116.869C212.857 116.869 212.192 117.082 211.663 117.509C211.141 117.935 210.751 118.5 210.496 119.205C210.246 119.903 210.121 120.67 210.121 121.506C210.121 122.347 210.246 123.116 210.496 123.815C210.751 124.514 211.141 125.074 211.663 125.494C212.192 125.915 212.857 126.125 213.658 126.125ZM228.826 114.909V116.955H221.428V114.909H228.826ZM223.457 128V113.392C223.457 112.574 223.636 111.895 223.994 111.355C224.352 110.81 224.826 110.403 225.417 110.136C226.008 109.864 226.65 109.727 227.343 109.727C227.854 109.727 228.292 109.77 228.656 109.855C229.019 109.935 229.289 110.009 229.465 110.077L228.869 112.139C228.749 112.105 228.596 112.065 228.408 112.02C228.221 111.969 227.994 111.943 227.727 111.943C227.107 111.943 226.664 112.097 226.397 112.403C226.136 112.71 226.005 113.153 226.005 113.733V128H223.457ZM239.418 132.909C239.037 132.909 238.69 132.878 238.378 132.815C238.065 132.759 237.832 132.696 237.679 132.628L238.293 130.54C238.759 130.665 239.173 130.719 239.537 130.702C239.901 130.685 240.222 130.548 240.5 130.293C240.784 130.037 241.034 129.619 241.25 129.04L241.565 128.17L236.776 114.909H239.503L242.818 125.068H242.955L246.27 114.909H249.006L243.611 129.747C243.361 130.429 243.043 131.006 242.656 131.477C242.27 131.955 241.81 132.313 241.276 132.551C240.741 132.79 240.122 132.909 239.418 132.909ZM256.469 128.264C255.242 128.264 254.171 127.983 253.256 127.42C252.342 126.858 251.631 126.071 251.126 125.06C250.62 124.048 250.367 122.866 250.367 121.514C250.367 120.156 250.62 118.969 251.126 117.952C251.631 116.935 252.342 116.145 253.256 115.582C254.171 115.02 255.242 114.739 256.469 114.739C257.697 114.739 258.768 115.02 259.683 115.582C260.597 116.145 261.308 116.935 261.813 117.952C262.319 118.969 262.572 120.156 262.572 121.514C262.572 122.866 262.319 124.048 261.813 125.06C261.308 126.071 260.597 126.858 259.683 127.42C258.768 127.983 257.697 128.264 256.469 128.264ZM256.478 126.125C257.273 126.125 257.933 125.915 258.455 125.494C258.978 125.074 259.364 124.514 259.614 123.815C259.87 123.116 259.998 122.347 259.998 121.506C259.998 120.67 259.87 119.903 259.614 119.205C259.364 118.5 258.978 117.935 258.455 117.509C257.933 117.082 257.273 116.869 256.478 116.869C255.677 116.869 255.012 117.082 254.484 117.509C253.961 117.935 253.572 118.5 253.316 119.205C253.066 119.903 252.941 120.67 252.941 121.506C252.941 122.347 253.066 123.116 253.316 123.815C253.572 124.514 253.961 125.074 254.484 125.494C255.012 125.915 255.677 126.125 256.478 126.125ZM273.709 122.571V114.909H276.266V128H273.76V125.733H273.624C273.322 126.432 272.839 127.014 272.175 127.48C271.516 127.94 270.695 128.17 269.712 128.17C268.871 128.17 268.126 127.986 267.479 127.616C266.837 127.241 266.331 126.688 265.962 125.955C265.598 125.222 265.416 124.315 265.416 123.236V114.909H267.964V122.929C267.964 123.821 268.212 124.531 268.706 125.06C269.2 125.588 269.842 125.852 270.632 125.852C271.109 125.852 271.584 125.733 272.055 125.494C272.533 125.256 272.928 124.895 273.24 124.412C273.558 123.929 273.714 123.315 273.709 122.571ZM279.69 128V114.909H282.153V116.989H282.289C282.528 116.284 282.948 115.73 283.55 115.327C284.158 114.918 284.846 114.713 285.613 114.713C285.772 114.713 285.96 114.719 286.175 114.73C286.397 114.741 286.57 114.756 286.695 114.773V117.21C286.593 117.182 286.411 117.151 286.15 117.116C285.888 117.077 285.627 117.057 285.366 117.057C284.763 117.057 284.227 117.185 283.755 117.44C283.289 117.69 282.92 118.04 282.647 118.489C282.374 118.932 282.238 119.437 282.238 120.006V128H279.69ZM309.954 116.222H307.295C307.192 115.653 307.002 115.153 306.724 114.722C306.445 114.29 306.104 113.923 305.701 113.622C305.298 113.321 304.846 113.094 304.346 112.94C303.852 112.787 303.326 112.71 302.769 112.71C301.763 112.71 300.863 112.963 300.067 113.469C299.278 113.974 298.653 114.716 298.192 115.693C297.738 116.67 297.511 117.864 297.511 119.273C297.511 120.693 297.738 121.892 298.192 122.869C298.653 123.847 299.281 124.585 300.076 125.085C300.871 125.585 301.766 125.835 302.761 125.835C303.312 125.835 303.835 125.761 304.329 125.614C304.829 125.46 305.281 125.236 305.684 124.94C306.087 124.645 306.428 124.284 306.707 123.858C306.991 123.426 307.187 122.932 307.295 122.375L309.954 122.384C309.812 123.241 309.536 124.031 309.127 124.753C308.724 125.469 308.204 126.088 307.567 126.611C306.937 127.128 306.215 127.528 305.403 127.812C304.59 128.097 303.704 128.239 302.744 128.239C301.232 128.239 299.886 127.881 298.704 127.165C297.522 126.443 296.59 125.412 295.908 124.071C295.232 122.73 294.894 121.131 294.894 119.273C294.894 117.409 295.235 115.81 295.917 114.474C296.599 113.134 297.531 112.105 298.712 111.389C299.894 110.668 301.238 110.307 302.744 110.307C303.67 110.307 304.533 110.44 305.335 110.707C306.141 110.969 306.866 111.355 307.508 111.866C308.15 112.372 308.681 112.991 309.102 113.724C309.522 114.452 309.806 115.284 309.954 116.222ZM318.543 128.264C317.253 128.264 316.142 127.989 315.21 127.438C314.284 126.881 313.568 126.099 313.062 125.094C312.562 124.082 312.312 122.898 312.312 121.54C312.312 120.199 312.562 119.017 313.062 117.994C313.568 116.972 314.273 116.173 315.176 115.599C316.085 115.026 317.148 114.739 318.364 114.739C319.102 114.739 319.818 114.861 320.511 115.105C321.205 115.349 321.827 115.733 322.378 116.256C322.929 116.778 323.364 117.457 323.682 118.293C324 119.122 324.159 120.131 324.159 121.318V122.222H313.753V120.312H321.662C321.662 119.642 321.526 119.048 321.253 118.531C320.98 118.009 320.597 117.597 320.102 117.295C319.614 116.994 319.04 116.844 318.381 116.844C317.665 116.844 317.04 117.02 316.506 117.372C315.977 117.719 315.568 118.173 315.278 118.736C314.994 119.293 314.852 119.898 314.852 120.551V122.043C314.852 122.918 315.006 123.662 315.312 124.276C315.625 124.889 316.06 125.358 316.616 125.682C317.173 126 317.824 126.159 318.568 126.159C319.051 126.159 319.491 126.091 319.889 125.955C320.287 125.812 320.631 125.602 320.92 125.324C321.21 125.045 321.432 124.702 321.585 124.293L323.997 124.727C323.804 125.437 323.457 126.06 322.957 126.594C322.463 127.122 321.841 127.534 321.091 127.83C320.347 128.119 319.497 128.264 318.543 128.264ZM326.987 128V114.909H329.45V116.989H329.586C329.825 116.284 330.245 115.73 330.847 115.327C331.455 114.918 332.143 114.713 332.91 114.713C333.069 114.713 333.256 114.719 333.472 114.73C333.694 114.741 333.867 114.756 333.992 114.773V117.21C333.89 117.182 333.708 117.151 333.447 117.116C333.185 117.077 332.924 117.057 332.663 117.057C332.06 117.057 331.523 117.185 331.052 117.44C330.586 117.69 330.217 118.04 329.944 118.489C329.671 118.932 329.535 119.437 329.535 120.006V128H326.987ZM343.082 114.909V116.955H335.931V114.909H343.082ZM337.849 111.773H340.397V124.156C340.397 124.651 340.471 125.023 340.619 125.273C340.766 125.517 340.957 125.685 341.19 125.776C341.428 125.861 341.687 125.903 341.965 125.903C342.17 125.903 342.349 125.889 342.502 125.861C342.656 125.832 342.775 125.81 342.86 125.793L343.32 127.898C343.173 127.955 342.962 128.011 342.69 128.068C342.417 128.131 342.076 128.165 341.667 128.17C340.996 128.182 340.371 128.062 339.792 127.812C339.212 127.562 338.744 127.176 338.386 126.653C338.028 126.131 337.849 125.474 337.849 124.685V111.773ZM345.901 128V114.909H348.449V128H345.901ZM347.188 112.889C346.744 112.889 346.364 112.741 346.045 112.446C345.733 112.145 345.577 111.787 345.577 111.372C345.577 110.952 345.733 110.594 346.045 110.298C346.364 109.997 346.744 109.847 347.188 109.847C347.631 109.847 348.009 109.997 348.321 110.298C348.639 110.594 348.798 110.952 348.798 111.372C348.798 111.787 348.639 112.145 348.321 112.446C348.009 112.741 347.631 112.889 347.188 112.889ZM358.107 114.909V116.955H350.71V114.909H358.107ZM352.738 128V113.392C352.738 112.574 352.917 111.895 353.275 111.355C353.633 110.81 354.107 110.403 354.698 110.136C355.289 109.864 355.931 109.727 356.624 109.727C357.136 109.727 357.573 109.77 357.937 109.855C358.3 109.935 358.57 110.009 358.746 110.077L358.15 112.139C358.031 112.105 357.877 112.065 357.69 112.02C357.502 111.969 357.275 111.943 357.008 111.943C356.388 111.943 355.945 112.097 355.678 112.403C355.417 112.71 355.286 113.153 355.286 113.733V128H352.738ZM360.737 128V114.909H363.285V128H360.737ZM362.023 112.889C361.58 112.889 361.2 112.741 360.881 112.446C360.569 112.145 360.413 111.787 360.413 111.372C360.413 110.952 360.569 110.594 360.881 110.298C361.2 109.997 361.58 109.847 362.023 109.847C362.467 109.847 362.844 109.997 363.157 110.298C363.475 110.594 363.634 110.952 363.634 111.372C363.634 111.787 363.475 112.145 363.157 112.446C362.844 112.741 362.467 112.889 362.023 112.889ZM372.227 128.264C370.96 128.264 369.869 127.977 368.955 127.403C368.045 126.824 367.347 126.026 366.858 125.009C366.369 123.991 366.125 122.827 366.125 121.514C366.125 120.185 366.375 119.011 366.875 117.994C367.375 116.972 368.08 116.173 368.989 115.599C369.898 115.026 370.969 114.739 372.202 114.739C373.196 114.739 374.082 114.923 374.861 115.293C375.639 115.656 376.267 116.168 376.744 116.827C377.227 117.486 377.514 118.256 377.605 119.136H375.125C374.989 118.523 374.676 117.994 374.188 117.551C373.705 117.108 373.057 116.886 372.244 116.886C371.534 116.886 370.912 117.074 370.378 117.449C369.849 117.818 369.438 118.347 369.142 119.034C368.847 119.716 368.699 120.523 368.699 121.455C368.699 122.409 368.844 123.233 369.134 123.926C369.423 124.619 369.832 125.156 370.361 125.537C370.895 125.918 371.523 126.108 372.244 126.108C372.727 126.108 373.165 126.02 373.557 125.844C373.955 125.662 374.287 125.403 374.554 125.068C374.827 124.733 375.017 124.33 375.125 123.858H377.605C377.514 124.705 377.239 125.46 376.778 126.125C376.318 126.79 375.702 127.312 374.929 127.693C374.162 128.074 373.261 128.264 372.227 128.264ZM384.14 128.29C383.31 128.29 382.56 128.136 381.89 127.83C381.219 127.517 380.688 127.065 380.296 126.474C379.91 125.884 379.717 125.159 379.717 124.301C379.717 123.562 379.859 122.955 380.143 122.477C380.427 122 380.81 121.622 381.293 121.344C381.776 121.065 382.316 120.855 382.913 120.713C383.509 120.571 384.117 120.463 384.737 120.389C385.521 120.298 386.157 120.224 386.646 120.168C387.134 120.105 387.489 120.006 387.711 119.869C387.933 119.733 388.043 119.511 388.043 119.205V119.145C388.043 118.401 387.833 117.824 387.413 117.415C386.998 117.006 386.379 116.801 385.555 116.801C384.697 116.801 384.021 116.991 383.526 117.372C383.038 117.747 382.7 118.165 382.512 118.625L380.117 118.08C380.401 117.284 380.816 116.642 381.362 116.153C381.913 115.659 382.546 115.301 383.262 115.08C383.978 114.852 384.731 114.739 385.521 114.739C386.043 114.739 386.597 114.801 387.183 114.926C387.773 115.045 388.325 115.267 388.836 115.591C389.353 115.915 389.776 116.378 390.106 116.98C390.435 117.577 390.6 118.352 390.6 119.307V128H388.112V126.21H388.009C387.844 126.54 387.597 126.864 387.268 127.182C386.938 127.5 386.515 127.764 385.998 127.974C385.481 128.185 384.862 128.29 384.14 128.29ZM384.694 126.244C385.398 126.244 386.001 126.105 386.501 125.827C387.006 125.548 387.39 125.185 387.651 124.736C387.918 124.281 388.052 123.795 388.052 123.278V121.591C387.961 121.682 387.785 121.767 387.523 121.847C387.268 121.92 386.975 121.986 386.646 122.043C386.316 122.094 385.995 122.142 385.683 122.188C385.37 122.227 385.109 122.261 384.898 122.29C384.404 122.352 383.952 122.457 383.543 122.605C383.14 122.753 382.816 122.966 382.572 123.244C382.333 123.517 382.214 123.881 382.214 124.335C382.214 124.966 382.447 125.443 382.913 125.767C383.379 126.085 383.972 126.244 384.694 126.244ZM400.105 114.909V116.955H392.955V114.909H400.105ZM394.872 111.773H397.42V124.156C397.42 124.651 397.494 125.023 397.642 125.273C397.79 125.517 397.98 125.685 398.213 125.776C398.452 125.861 398.71 125.903 398.989 125.903C399.193 125.903 399.372 125.889 399.526 125.861C399.679 125.832 399.798 125.81 399.884 125.793L400.344 127.898C400.196 127.955 399.986 128.011 399.713 128.068C399.44 128.131 399.099 128.165 398.69 128.17C398.02 128.182 397.395 128.062 396.815 127.812C396.236 127.562 395.767 127.176 395.409 126.653C395.051 126.131 394.872 125.474 394.872 124.685V111.773ZM408.425 128.264C407.136 128.264 406.025 127.989 405.093 127.438C404.167 126.881 403.451 126.099 402.945 125.094C402.445 124.082 402.195 122.898 402.195 121.54C402.195 120.199 402.445 119.017 402.945 117.994C403.451 116.972 404.156 116.173 405.059 115.599C405.968 115.026 407.031 114.739 408.246 114.739C408.985 114.739 409.701 114.861 410.394 115.105C411.087 115.349 411.71 115.733 412.261 116.256C412.812 116.778 413.246 117.457 413.565 118.293C413.883 119.122 414.042 120.131 414.042 121.318V122.222H403.636V120.312H411.545C411.545 119.642 411.408 119.048 411.136 118.531C410.863 118.009 410.479 117.597 409.985 117.295C409.496 116.994 408.923 116.844 408.263 116.844C407.548 116.844 406.923 117.02 406.388 117.372C405.86 117.719 405.451 118.173 405.161 118.736C404.877 119.293 404.735 119.898 404.735 120.551V122.043C404.735 122.918 404.888 123.662 405.195 124.276C405.508 124.889 405.942 125.358 406.499 125.682C407.056 126 407.707 126.159 408.451 126.159C408.934 126.159 409.374 126.091 409.772 125.955C410.17 125.812 410.513 125.602 410.803 125.324C411.093 125.045 411.315 124.702 411.468 124.293L413.88 124.727C413.687 125.437 413.34 126.06 412.84 126.594C412.346 127.122 411.724 127.534 410.974 127.83C410.229 128.119 409.38 128.264 408.425 128.264ZM147.227 157.264C146 157.264 144.929 156.983 144.014 156.42C143.099 155.858 142.389 155.071 141.884 154.06C141.378 153.048 141.125 151.866 141.125 150.514C141.125 149.156 141.378 147.969 141.884 146.952C142.389 145.935 143.099 145.145 144.014 144.582C144.929 144.02 146 143.739 147.227 143.739C148.455 143.739 149.526 144.02 150.44 144.582C151.355 145.145 152.065 145.935 152.571 146.952C153.077 147.969 153.33 149.156 153.33 150.514C153.33 151.866 153.077 153.048 152.571 154.06C152.065 155.071 151.355 155.858 150.44 156.42C149.526 156.983 148.455 157.264 147.227 157.264ZM147.236 155.125C148.031 155.125 148.69 154.915 149.213 154.494C149.736 154.074 150.122 153.514 150.372 152.815C150.628 152.116 150.756 151.347 150.756 150.506C150.756 149.67 150.628 148.903 150.372 148.205C150.122 147.5 149.736 146.935 149.213 146.509C148.69 146.082 148.031 145.869 147.236 145.869C146.435 145.869 145.77 146.082 145.241 146.509C144.719 146.935 144.33 147.5 144.074 148.205C143.824 148.903 143.699 149.67 143.699 150.506C143.699 151.347 143.824 152.116 144.074 152.815C144.33 153.514 144.719 154.074 145.241 154.494C145.77 154.915 146.435 155.125 147.236 155.125ZM162.404 143.909V145.955H155.006V143.909H162.404ZM157.035 157V142.392C157.035 141.574 157.214 140.895 157.572 140.355C157.93 139.81 158.404 139.403 158.995 139.136C159.586 138.864 160.228 138.727 160.921 138.727C161.433 138.727 161.87 138.77 162.234 138.855C162.597 138.935 162.867 139.009 163.043 139.077L162.447 141.139C162.327 141.105 162.174 141.065 161.987 141.02C161.799 140.969 161.572 140.943 161.305 140.943C160.685 140.943 160.242 141.097 159.975 141.403C159.714 141.71 159.583 142.153 159.583 142.733V157H157.035ZM171.589 157V139.545H177.811C179.163 139.545 180.286 139.778 181.178 140.244C182.075 140.71 182.746 141.355 183.189 142.179C183.632 142.997 183.854 143.943 183.854 145.017C183.854 146.085 183.629 147.026 183.18 147.838C182.737 148.645 182.067 149.273 181.169 149.722C180.277 150.17 179.155 150.395 177.803 150.395H173.089V148.128H177.564C178.416 148.128 179.109 148.006 179.643 147.761C180.183 147.517 180.578 147.162 180.828 146.696C181.078 146.23 181.203 145.67 181.203 145.017C181.203 144.358 181.075 143.787 180.82 143.304C180.57 142.821 180.175 142.452 179.635 142.196C179.101 141.935 178.399 141.804 177.53 141.804H174.223V157H171.589ZM180.206 149.125L184.518 157H181.518L177.291 149.125H180.206ZM192.332 157.264C191.042 157.264 189.931 156.989 188.999 156.438C188.073 155.881 187.357 155.099 186.852 154.094C186.352 153.082 186.102 151.898 186.102 150.54C186.102 149.199 186.352 148.017 186.852 146.994C187.357 145.972 188.062 145.173 188.965 144.599C189.874 144.026 190.937 143.739 192.153 143.739C192.891 143.739 193.607 143.861 194.3 144.105C194.994 144.349 195.616 144.733 196.167 145.256C196.718 145.778 197.153 146.457 197.471 147.293C197.789 148.122 197.948 149.131 197.948 150.318V151.222H187.542V149.312H195.451C195.451 148.642 195.315 148.048 195.042 147.531C194.769 147.009 194.386 146.597 193.891 146.295C193.403 145.994 192.829 145.844 192.17 145.844C191.454 145.844 190.829 146.02 190.295 146.372C189.766 146.719 189.357 147.173 189.067 147.736C188.783 148.293 188.641 148.898 188.641 149.551V151.043C188.641 151.918 188.795 152.662 189.102 153.276C189.414 153.889 189.849 154.358 190.406 154.682C190.962 155 191.613 155.159 192.357 155.159C192.84 155.159 193.281 155.091 193.678 154.955C194.076 154.812 194.42 154.602 194.71 154.324C194.999 154.045 195.221 153.702 195.374 153.293L197.786 153.727C197.593 154.437 197.246 155.06 196.746 155.594C196.252 156.122 195.63 156.534 194.88 156.83C194.136 157.119 193.286 157.264 192.332 157.264ZM206.264 162.182C205.224 162.182 204.33 162.045 203.58 161.773C202.835 161.5 202.227 161.139 201.756 160.69C201.284 160.241 200.932 159.75 200.699 159.216L202.889 158.312C203.043 158.562 203.247 158.827 203.503 159.105C203.764 159.389 204.116 159.631 204.56 159.83C205.009 160.028 205.585 160.128 206.29 160.128C207.256 160.128 208.054 159.892 208.685 159.42C209.315 158.955 209.631 158.21 209.631 157.188V154.614H209.469C209.315 154.892 209.094 155.202 208.804 155.543C208.52 155.884 208.128 156.179 207.628 156.429C207.128 156.679 206.477 156.804 205.676 156.804C204.642 156.804 203.71 156.562 202.881 156.08C202.057 155.591 201.403 154.872 200.92 153.923C200.443 152.969 200.205 151.795 200.205 150.403C200.205 149.011 200.44 147.818 200.912 146.824C201.389 145.83 202.043 145.068 202.872 144.54C203.702 144.006 204.642 143.739 205.693 143.739C206.506 143.739 207.162 143.875 207.662 144.148C208.162 144.415 208.551 144.727 208.83 145.085C209.114 145.443 209.332 145.759 209.486 146.031H209.673V143.909H212.17V157.29C212.17 158.415 211.909 159.338 211.386 160.06C210.864 160.781 210.156 161.315 209.264 161.662C208.378 162.009 207.378 162.182 206.264 162.182ZM206.239 154.69C206.972 154.69 207.591 154.52 208.097 154.179C208.608 153.832 208.994 153.338 209.256 152.696C209.523 152.048 209.656 151.273 209.656 150.369C209.656 149.489 209.526 148.713 209.264 148.043C209.003 147.372 208.619 146.849 208.114 146.474C207.608 146.094 206.983 145.903 206.239 145.903C205.472 145.903 204.832 146.102 204.321 146.5C203.81 146.892 203.423 147.426 203.162 148.102C202.906 148.778 202.778 149.534 202.778 150.369C202.778 151.227 202.909 151.98 203.17 152.628C203.432 153.276 203.818 153.781 204.33 154.145C204.847 154.509 205.483 154.69 206.239 154.69ZM215.588 157V143.909H218.136V157H215.588ZM216.875 141.889C216.432 141.889 216.051 141.741 215.733 141.446C215.42 141.145 215.264 140.787 215.264 140.372C215.264 139.952 215.42 139.594 215.733 139.298C216.051 138.997 216.432 138.847 216.875 138.847C217.318 138.847 217.696 138.997 218.009 139.298C218.327 139.594 218.486 139.952 218.486 140.372C218.486 140.787 218.327 141.145 218.009 141.446C217.696 141.741 217.318 141.889 216.875 141.889ZM231.374 147.105L229.065 147.514C228.968 147.219 228.815 146.937 228.604 146.67C228.4 146.403 228.121 146.185 227.769 146.014C227.417 145.844 226.977 145.759 226.448 145.759C225.727 145.759 225.124 145.92 224.641 146.244C224.158 146.562 223.917 146.974 223.917 147.48C223.917 147.918 224.079 148.27 224.403 148.537C224.727 148.804 225.249 149.023 225.971 149.193L228.05 149.67C229.255 149.949 230.153 150.378 230.744 150.957C231.335 151.537 231.63 152.29 231.63 153.216C231.63 154 231.403 154.699 230.948 155.312C230.499 155.92 229.871 156.398 229.065 156.744C228.263 157.091 227.335 157.264 226.278 157.264C224.812 157.264 223.616 156.952 222.69 156.327C221.763 155.696 221.195 154.801 220.985 153.642L223.448 153.267C223.602 153.909 223.917 154.395 224.394 154.724C224.871 155.048 225.494 155.21 226.261 155.21C227.096 155.21 227.763 155.037 228.263 154.69C228.763 154.338 229.013 153.909 229.013 153.403C229.013 152.994 228.86 152.651 228.553 152.372C228.252 152.094 227.789 151.884 227.164 151.741L224.948 151.256C223.727 150.977 222.823 150.534 222.238 149.926C221.658 149.318 221.369 148.548 221.369 147.616C221.369 146.844 221.585 146.168 222.016 145.588C222.448 145.009 223.045 144.557 223.806 144.233C224.567 143.903 225.44 143.739 226.423 143.739C227.837 143.739 228.951 144.045 229.763 144.659C230.576 145.267 231.113 146.082 231.374 147.105ZM240.543 143.909V145.955H233.392V143.909H240.543ZM235.31 140.773H237.858V153.156C237.858 153.651 237.932 154.023 238.08 154.273C238.227 154.517 238.418 154.685 238.651 154.776C238.889 154.861 239.148 154.903 239.426 154.903C239.631 154.903 239.81 154.889 239.963 154.861C240.116 154.832 240.236 154.81 240.321 154.793L240.781 156.898C240.634 156.955 240.423 157.011 240.151 157.068C239.878 157.131 239.537 157.165 239.128 157.17C238.457 157.182 237.832 157.062 237.253 156.812C236.673 156.562 236.205 156.176 235.847 155.653C235.489 155.131 235.31 154.474 235.31 153.685V140.773ZM243.362 157V143.909H245.825V145.989H245.961C246.2 145.284 246.62 144.73 247.222 144.327C247.83 143.918 248.518 143.713 249.285 143.713C249.444 143.713 249.631 143.719 249.847 143.73C250.069 143.741 250.242 143.756 250.367 143.773V146.21C250.265 146.182 250.083 146.151 249.822 146.116C249.56 146.077 249.299 146.057 249.038 146.057C248.435 146.057 247.898 146.185 247.427 146.44C246.961 146.69 246.592 147.04 246.319 147.489C246.046 147.932 245.91 148.437 245.91 149.006V157H243.362ZM256.265 157.29C255.435 157.29 254.685 157.136 254.015 156.83C253.344 156.517 252.813 156.065 252.421 155.474C252.035 154.884 251.842 154.159 251.842 153.301C251.842 152.562 251.984 151.955 252.268 151.477C252.552 151 252.935 150.622 253.418 150.344C253.901 150.065 254.441 149.855 255.038 149.713C255.634 149.571 256.242 149.463 256.862 149.389C257.646 149.298 258.282 149.224 258.771 149.168C259.259 149.105 259.614 149.006 259.836 148.869C260.058 148.733 260.168 148.511 260.168 148.205V148.145C260.168 147.401 259.958 146.824 259.538 146.415C259.123 146.006 258.504 145.801 257.68 145.801C256.822 145.801 256.146 145.991 255.651 146.372C255.163 146.747 254.825 147.165 254.637 147.625L252.242 147.08C252.526 146.284 252.941 145.642 253.487 145.153C254.038 144.659 254.671 144.301 255.387 144.08C256.103 143.852 256.856 143.739 257.646 143.739C258.168 143.739 258.722 143.801 259.308 143.926C259.898 144.045 260.45 144.267 260.961 144.591C261.478 144.915 261.901 145.378 262.231 145.98C262.56 146.577 262.725 147.352 262.725 148.307V157H260.237V155.21H260.134C259.969 155.54 259.722 155.864 259.393 156.182C259.063 156.5 258.64 156.764 258.123 156.974C257.606 157.185 256.987 157.29 256.265 157.29ZM256.819 155.244C257.523 155.244 258.126 155.105 258.626 154.827C259.131 154.548 259.515 154.185 259.776 153.736C260.043 153.281 260.177 152.795 260.177 152.278V150.591C260.086 150.682 259.91 150.767 259.648 150.847C259.393 150.92 259.1 150.986 258.771 151.043C258.441 151.094 258.12 151.142 257.808 151.188C257.495 151.227 257.234 151.261 257.023 151.29C256.529 151.352 256.077 151.457 255.668 151.605C255.265 151.753 254.941 151.966 254.697 152.244C254.458 152.517 254.339 152.881 254.339 153.335C254.339 153.966 254.572 154.443 255.038 154.767C255.504 155.085 256.097 155.244 256.819 155.244ZM272.23 143.909V145.955H265.08V143.909H272.23ZM266.997 140.773H269.545V153.156C269.545 153.651 269.619 154.023 269.767 154.273C269.915 154.517 270.105 154.685 270.338 154.776C270.577 154.861 270.835 154.903 271.114 154.903C271.318 154.903 271.497 154.889 271.651 154.861C271.804 154.832 271.923 154.81 272.009 154.793L272.469 156.898C272.321 156.955 272.111 157.011 271.838 157.068C271.565 157.131 271.224 157.165 270.815 157.17C270.145 157.182 269.52 157.062 268.94 156.812C268.361 156.562 267.892 156.176 267.534 155.653C267.176 155.131 266.997 154.474 266.997 153.685V140.773ZM275.049 157V143.909H277.597V157H275.049ZM276.336 141.889C275.893 141.889 275.512 141.741 275.194 141.446C274.881 141.145 274.725 140.787 274.725 140.372C274.725 139.952 274.881 139.594 275.194 139.298C275.512 138.997 275.893 138.847 276.336 138.847C276.779 138.847 277.157 138.997 277.469 139.298C277.788 139.594 277.947 139.952 277.947 140.372C277.947 140.787 277.788 141.145 277.469 141.446C277.157 141.741 276.779 141.889 276.336 141.889ZM286.54 157.264C285.313 157.264 284.241 156.983 283.327 156.42C282.412 155.858 281.702 155.071 281.196 154.06C280.69 153.048 280.438 151.866 280.438 150.514C280.438 149.156 280.69 147.969 281.196 146.952C281.702 145.935 282.412 145.145 283.327 144.582C284.241 144.02 285.313 143.739 286.54 143.739C287.767 143.739 288.838 144.02 289.753 144.582C290.668 145.145 291.378 145.935 291.884 146.952C292.389 147.969 292.642 149.156 292.642 150.514C292.642 151.866 292.389 153.048 291.884 154.06C291.378 155.071 290.668 155.858 289.753 156.42C288.838 156.983 287.767 157.264 286.54 157.264ZM286.548 155.125C287.344 155.125 288.003 154.915 288.526 154.494C289.048 154.074 289.435 153.514 289.685 152.815C289.94 152.116 290.068 151.347 290.068 150.506C290.068 149.67 289.94 148.903 289.685 148.205C289.435 147.5 289.048 146.935 288.526 146.509C288.003 146.082 287.344 145.869 286.548 145.869C285.747 145.869 285.082 146.082 284.554 146.509C284.031 146.935 283.642 147.5 283.386 148.205C283.136 148.903 283.011 149.67 283.011 150.506C283.011 151.347 283.136 152.116 283.386 152.815C283.642 153.514 284.031 154.074 284.554 154.494C285.082 154.915 285.747 155.125 286.548 155.125ZM298.035 149.227V157H295.487V143.909H297.933V146.04H298.094C298.396 145.347 298.867 144.79 299.509 144.369C300.157 143.949 300.972 143.739 301.955 143.739C302.847 143.739 303.629 143.926 304.299 144.301C304.969 144.67 305.489 145.222 305.859 145.955C306.228 146.687 306.413 147.594 306.413 148.673V157H303.864V148.98C303.864 148.031 303.617 147.29 303.123 146.756C302.629 146.216 301.95 145.946 301.086 145.946C300.495 145.946 299.969 146.074 299.509 146.33C299.055 146.585 298.694 146.96 298.427 147.455C298.165 147.943 298.035 148.534 298.035 149.227ZM316.923 148.273C316.923 146.136 317.205 144.17 317.767 142.375C318.33 140.58 319.151 138.923 320.23 137.406H322.565C322.145 137.969 321.753 138.659 321.389 139.477C321.026 140.295 320.707 141.193 320.435 142.17C320.162 143.142 319.949 144.151 319.795 145.196C319.642 146.236 319.565 147.261 319.565 148.273C319.565 149.625 319.699 150.994 319.966 152.381C320.233 153.767 320.594 155.054 321.048 156.241C321.503 157.429 322.009 158.398 322.565 159.148H320.23C319.151 157.631 318.33 155.974 317.767 154.179C317.205 152.384 316.923 150.415 316.923 148.273ZM339.954 145.222H337.295C337.192 144.653 337.002 144.153 336.724 143.722C336.445 143.29 336.104 142.923 335.701 142.622C335.298 142.321 334.846 142.094 334.346 141.94C333.852 141.787 333.326 141.71 332.769 141.71C331.763 141.71 330.863 141.963 330.067 142.469C329.278 142.974 328.653 143.716 328.192 144.693C327.738 145.67 327.511 146.864 327.511 148.273C327.511 149.693 327.738 150.892 328.192 151.869C328.653 152.847 329.281 153.585 330.076 154.085C330.871 154.585 331.766 154.835 332.761 154.835C333.312 154.835 333.835 154.761 334.329 154.614C334.829 154.46 335.281 154.236 335.684 153.94C336.087 153.645 336.428 153.284 336.707 152.858C336.991 152.426 337.187 151.932 337.295 151.375L339.954 151.384C339.812 152.241 339.536 153.031 339.127 153.753C338.724 154.469 338.204 155.088 337.567 155.611C336.937 156.128 336.215 156.528 335.403 156.812C334.59 157.097 333.704 157.239 332.744 157.239C331.232 157.239 329.886 156.881 328.704 156.165C327.522 155.443 326.59 154.412 325.908 153.071C325.232 151.73 324.894 150.131 324.894 148.273C324.894 146.409 325.235 144.81 325.917 143.474C326.599 142.134 327.531 141.105 328.712 140.389C329.894 139.668 331.238 139.307 332.744 139.307C333.67 139.307 334.533 139.44 335.335 139.707C336.141 139.969 336.866 140.355 337.508 140.866C338.15 141.372 338.681 141.991 339.102 142.724C339.522 143.452 339.806 144.284 339.954 145.222ZM358.267 148.273C358.267 150.136 357.926 151.739 357.244 153.08C356.563 154.415 355.628 155.443 354.44 156.165C353.259 156.881 351.915 157.239 350.409 157.239C348.898 157.239 347.548 156.881 346.361 156.165C345.179 155.443 344.247 154.412 343.565 153.071C342.884 151.73 342.543 150.131 342.543 148.273C342.543 146.409 342.884 144.81 343.565 143.474C344.247 142.134 345.179 141.105 346.361 140.389C347.548 139.668 348.898 139.307 350.409 139.307C351.915 139.307 353.259 139.668 354.44 140.389C355.628 141.105 356.563 142.134 357.244 143.474C357.926 144.81 358.267 146.409 358.267 148.273ZM355.659 148.273C355.659 146.852 355.429 145.656 354.969 144.685C354.514 143.707 353.889 142.969 353.094 142.469C352.304 141.963 351.409 141.71 350.409 141.71C349.403 141.71 348.506 141.963 347.716 142.469C346.926 142.969 346.301 143.707 345.841 144.685C345.386 145.656 345.159 146.852 345.159 148.273C345.159 149.693 345.386 150.892 345.841 151.869C346.301 152.841 346.926 153.58 347.716 154.085C348.506 154.585 349.403 154.835 350.409 154.835C351.409 154.835 352.304 154.585 353.094 154.085C353.889 153.58 354.514 152.841 354.969 151.869C355.429 150.892 355.659 149.693 355.659 148.273ZM361.55 157V139.545H367.772C369.124 139.545 370.246 139.778 371.138 140.244C372.036 140.71 372.707 141.355 373.15 142.179C373.593 142.997 373.815 143.943 373.815 145.017C373.815 146.085 373.59 147.026 373.141 147.838C372.698 148.645 372.028 149.273 371.13 149.722C370.238 150.17 369.116 150.395 367.763 150.395H363.05V148.128H367.525C368.377 148.128 369.07 148.006 369.604 147.761C370.144 147.517 370.539 147.162 370.789 146.696C371.039 146.23 371.164 145.67 371.164 145.017C371.164 144.358 371.036 143.787 370.781 143.304C370.531 142.821 370.136 142.452 369.596 142.196C369.062 141.935 368.36 141.804 367.491 141.804H364.184V157H361.55ZM370.167 149.125L374.479 157H371.479L367.252 149.125H370.167ZM381.715 148.273C381.715 150.415 381.434 152.384 380.871 154.179C380.309 155.974 379.488 157.631 378.408 159.148H376.073C376.494 158.585 376.886 157.895 377.249 157.077C377.613 156.259 377.931 155.364 378.204 154.392C378.477 153.415 378.69 152.403 378.843 151.358C378.996 150.312 379.073 149.284 379.073 148.273C379.073 146.926 378.94 145.56 378.673 144.173C378.406 142.787 378.045 141.5 377.59 140.312C377.136 139.125 376.63 138.156 376.073 137.406H378.408C379.488 138.923 380.309 140.58 380.871 142.375C381.434 144.17 381.715 146.136 381.715 148.273Z" fill="#171717"/>
<path d="M156.415 255.222H153.756C153.653 254.653 153.463 254.153 153.185 253.722C152.906 253.29 152.565 252.923 152.162 252.622C151.759 252.321 151.307 252.094 150.807 251.94C150.313 251.787 149.787 251.71 149.23 251.71C148.224 251.71 147.324 251.963 146.528 252.469C145.739 252.974 145.114 253.716 144.653 254.693C144.199 255.67 143.972 256.864 143.972 258.273C143.972 259.693 144.199 260.892 144.653 261.869C145.114 262.847 145.741 263.585 146.537 264.085C147.332 264.585 148.227 264.835 149.222 264.835C149.773 264.835 150.295 264.761 150.79 264.614C151.29 264.46 151.741 264.236 152.145 263.94C152.548 263.645 152.889 263.284 153.168 262.858C153.452 262.426 153.648 261.932 153.756 261.375L156.415 261.384C156.273 262.241 155.997 263.031 155.588 263.753C155.185 264.469 154.665 265.088 154.028 265.611C153.398 266.128 152.676 266.528 151.864 266.812C151.051 267.097 150.165 267.239 149.205 267.239C147.693 267.239 146.347 266.881 145.165 266.165C143.983 265.443 143.051 264.412 142.369 263.071C141.693 261.73 141.355 260.131 141.355 258.273C141.355 256.409 141.696 254.81 142.378 253.474C143.06 252.134 143.991 251.105 145.173 250.389C146.355 249.668 147.699 249.307 149.205 249.307C150.131 249.307 150.994 249.44 151.795 249.707C152.602 249.969 153.327 250.355 153.969 250.866C154.611 251.372 155.142 251.991 155.562 252.724C155.983 253.452 156.267 254.284 156.415 255.222ZM164.876 267.264C163.648 267.264 162.577 266.983 161.663 266.42C160.748 265.858 160.038 265.071 159.532 264.06C159.026 263.048 158.773 261.866 158.773 260.514C158.773 259.156 159.026 257.969 159.532 256.952C160.038 255.935 160.748 255.145 161.663 254.582C162.577 254.02 163.648 253.739 164.876 253.739C166.103 253.739 167.174 254.02 168.089 254.582C169.004 255.145 169.714 255.935 170.219 256.952C170.725 257.969 170.978 259.156 170.978 260.514C170.978 261.866 170.725 263.048 170.219 264.06C169.714 265.071 169.004 265.858 168.089 266.42C167.174 266.983 166.103 267.264 164.876 267.264ZM164.884 265.125C165.68 265.125 166.339 264.915 166.862 264.494C167.384 264.074 167.771 263.514 168.021 262.815C168.276 262.116 168.404 261.347 168.404 260.506C168.404 259.67 168.276 258.903 168.021 258.205C167.771 257.5 167.384 256.935 166.862 256.509C166.339 256.082 165.68 255.869 164.884 255.869C164.083 255.869 163.418 256.082 162.89 256.509C162.367 256.935 161.978 257.5 161.722 258.205C161.472 258.903 161.347 259.67 161.347 260.506C161.347 261.347 161.472 262.116 161.722 262.815C161.978 263.514 162.367 264.074 162.89 264.494C163.418 264.915 164.083 265.125 164.884 265.125ZM173.822 271.909V253.909H176.311V256.031H176.524C176.672 255.759 176.885 255.443 177.163 255.085C177.442 254.727 177.828 254.415 178.322 254.148C178.817 253.875 179.47 253.739 180.283 253.739C181.339 253.739 182.283 254.006 183.112 254.54C183.942 255.074 184.592 255.844 185.064 256.849C185.541 257.855 185.78 259.065 185.78 260.48C185.78 261.895 185.544 263.108 185.072 264.119C184.601 265.125 183.953 265.901 183.129 266.446C182.305 266.986 181.365 267.256 180.308 267.256C179.513 267.256 178.862 267.122 178.357 266.855C177.857 266.588 177.464 266.276 177.18 265.918C176.896 265.56 176.678 265.241 176.524 264.963H176.371V271.909H173.822ZM176.32 260.455C176.32 261.375 176.453 262.182 176.72 262.875C176.987 263.568 177.374 264.111 177.879 264.503C178.385 264.889 179.004 265.082 179.737 265.082C180.499 265.082 181.135 264.881 181.646 264.477C182.158 264.068 182.544 263.514 182.805 262.815C183.072 262.116 183.206 261.33 183.206 260.455C183.206 259.591 183.075 258.815 182.814 258.128C182.558 257.44 182.172 256.898 181.655 256.5C181.143 256.102 180.504 255.903 179.737 255.903C178.999 255.903 178.374 256.094 177.862 256.474C177.357 256.855 176.973 257.386 176.712 258.068C176.45 258.75 176.32 259.545 176.32 260.455ZM188.635 267V253.909H191.183V267H188.635ZM189.922 251.889C189.479 251.889 189.098 251.741 188.78 251.446C188.467 251.145 188.311 250.787 188.311 250.372C188.311 249.952 188.467 249.594 188.78 249.298C189.098 248.997 189.479 248.847 189.922 248.847C190.365 248.847 190.743 248.997 191.055 249.298C191.374 249.594 191.533 249.952 191.533 250.372C191.533 250.787 191.374 251.145 191.055 251.446C190.743 251.741 190.365 251.889 189.922 251.889ZM200.254 267.264C198.964 267.264 197.853 266.989 196.921 266.438C195.995 265.881 195.279 265.099 194.773 264.094C194.273 263.082 194.023 261.898 194.023 260.54C194.023 259.199 194.273 258.017 194.773 256.994C195.279 255.972 195.984 255.173 196.887 254.599C197.796 254.026 198.859 253.739 200.075 253.739C200.813 253.739 201.529 253.861 202.222 254.105C202.915 254.349 203.538 254.733 204.089 255.256C204.64 255.778 205.075 256.457 205.393 257.293C205.711 258.122 205.87 259.131 205.87 260.318V261.222H195.464V259.312H203.373C203.373 258.642 203.237 258.048 202.964 257.531C202.691 257.009 202.308 256.597 201.813 256.295C201.325 255.994 200.751 255.844 200.092 255.844C199.376 255.844 198.751 256.02 198.217 256.372C197.688 256.719 197.279 257.173 196.989 257.736C196.705 258.293 196.563 258.898 196.563 259.551V261.043C196.563 261.918 196.717 262.662 197.023 263.276C197.336 263.889 197.771 264.358 198.327 264.682C198.884 265 199.535 265.159 200.279 265.159C200.762 265.159 201.202 265.091 201.6 264.955C201.998 264.812 202.342 264.602 202.631 264.324C202.921 264.045 203.143 263.702 203.296 263.293L205.708 263.727C205.515 264.437 205.168 265.06 204.668 265.594C204.174 266.122 203.552 266.534 202.802 266.83C202.058 267.119 201.208 267.264 200.254 267.264ZM218.507 257.105L216.197 257.514C216.101 257.219 215.947 256.937 215.737 256.67C215.533 256.403 215.254 256.185 214.902 256.014C214.55 255.844 214.109 255.759 213.581 255.759C212.859 255.759 212.257 255.92 211.774 256.244C211.291 256.562 211.05 256.974 211.05 257.48C211.05 257.918 211.212 258.27 211.536 258.537C211.859 258.804 212.382 259.023 213.104 259.193L215.183 259.67C216.388 259.949 217.286 260.378 217.876 260.957C218.467 261.537 218.763 262.29 218.763 263.216C218.763 264 218.536 264.699 218.081 265.312C217.632 265.92 217.004 266.398 216.197 266.744C215.396 267.091 214.467 267.264 213.411 267.264C211.945 267.264 210.749 266.952 209.822 266.327C208.896 265.696 208.328 264.801 208.118 263.642L210.581 263.267C210.734 263.909 211.05 264.395 211.527 264.724C212.004 265.048 212.626 265.21 213.393 265.21C214.229 265.21 214.896 265.037 215.396 264.69C215.896 264.338 216.146 263.909 216.146 263.403C216.146 262.994 215.993 262.651 215.686 262.372C215.385 262.094 214.922 261.884 214.297 261.741L212.081 261.256C210.859 260.977 209.956 260.534 209.371 259.926C208.791 259.318 208.501 258.548 208.501 257.616C208.501 256.844 208.717 256.168 209.149 255.588C209.581 255.009 210.178 254.557 210.939 254.233C211.7 253.903 212.572 253.739 213.555 253.739C214.97 253.739 216.084 254.045 216.896 254.659C217.709 255.267 218.246 256.082 218.507 257.105ZM233.43 267.264C232.203 267.264 231.132 266.983 230.217 266.42C229.303 265.858 228.592 265.071 228.087 264.06C227.581 263.048 227.328 261.866 227.328 260.514C227.328 259.156 227.581 257.969 228.087 256.952C228.592 255.935 229.303 255.145 230.217 254.582C231.132 254.02 232.203 253.739 233.43 253.739C234.658 253.739 235.729 254.02 236.643 254.582C237.558 255.145 238.268 255.935 238.774 256.952C239.28 257.969 239.533 259.156 239.533 260.514C239.533 261.866 239.28 263.048 238.774 264.06C238.268 265.071 237.558 265.858 236.643 266.42C235.729 266.983 234.658 267.264 233.43 267.264ZM233.439 265.125C234.234 265.125 234.893 264.915 235.416 264.494C235.939 264.074 236.325 263.514 236.575 262.815C236.831 262.116 236.959 261.347 236.959 260.506C236.959 259.67 236.831 258.903 236.575 258.205C236.325 257.5 235.939 256.935 235.416 256.509C234.893 256.082 234.234 255.869 233.439 255.869C232.638 255.869 231.973 256.082 231.445 256.509C230.922 256.935 230.533 257.5 230.277 258.205C230.027 258.903 229.902 259.67 229.902 260.506C229.902 261.347 230.027 262.116 230.277 262.815C230.533 263.514 230.922 264.074 231.445 264.494C231.973 264.915 232.638 265.125 233.439 265.125ZM248.607 253.909V255.955H241.21V253.909H248.607ZM243.238 267V252.392C243.238 251.574 243.417 250.895 243.775 250.355C244.133 249.81 244.607 249.403 245.198 249.136C245.789 248.864 246.431 248.727 247.124 248.727C247.636 248.727 248.073 248.77 248.437 248.855C248.8 248.935 249.07 249.009 249.246 249.077L248.65 251.139C248.531 251.105 248.377 251.065 248.19 251.02C248.002 250.969 247.775 250.943 247.508 250.943C246.888 250.943 246.445 251.097 246.178 251.403C245.917 251.71 245.786 252.153 245.786 252.733V267H243.238ZM259.199 271.909C258.818 271.909 258.472 271.878 258.159 271.815C257.847 271.759 257.614 271.696 257.46 271.628L258.074 269.54C258.54 269.665 258.955 269.719 259.318 269.702C259.682 269.685 260.003 269.548 260.281 269.293C260.565 269.037 260.815 268.619 261.031 268.04L261.347 267.17L256.557 253.909H259.284L262.599 264.068H262.736L266.051 253.909H268.787L263.392 268.747C263.142 269.429 262.824 270.006 262.438 270.477C262.051 270.955 261.591 271.313 261.057 271.551C260.523 271.79 259.903 271.909 259.199 271.909ZM276.251 267.264C275.023 267.264 273.952 266.983 273.038 266.42C272.123 265.858 271.413 265.071 270.907 264.06C270.401 263.048 270.148 261.866 270.148 260.514C270.148 259.156 270.401 257.969 270.907 256.952C271.413 255.935 272.123 255.145 273.038 254.582C273.952 254.02 275.023 253.739 276.251 253.739C277.478 253.739 278.549 254.02 279.464 254.582C280.379 255.145 281.089 255.935 281.594 256.952C282.1 257.969 282.353 259.156 282.353 260.514C282.353 261.866 282.1 263.048 281.594 264.06C281.089 265.071 280.379 265.858 279.464 266.42C278.549 266.983 277.478 267.264 276.251 267.264ZM276.259 265.125C277.055 265.125 277.714 264.915 278.237 264.494C278.759 264.074 279.146 263.514 279.396 262.815C279.651 262.116 279.779 261.347 279.779 260.506C279.779 259.67 279.651 258.903 279.396 258.205C279.146 257.5 278.759 256.935 278.237 256.509C277.714 256.082 277.055 255.869 276.259 255.869C275.458 255.869 274.793 256.082 274.265 256.509C273.742 256.935 273.353 257.5 273.097 258.205C272.847 258.903 272.722 259.67 272.722 260.506C272.722 261.347 272.847 262.116 273.097 262.815C273.353 263.514 273.742 264.074 274.265 264.494C274.793 264.915 275.458 265.125 276.259 265.125ZM293.49 261.571V253.909H296.047V267H293.541V264.733H293.405C293.104 265.432 292.621 266.014 291.956 266.48C291.297 266.94 290.476 267.17 289.493 267.17C288.652 267.17 287.908 266.986 287.26 266.616C286.618 266.241 286.112 265.688 285.743 264.955C285.379 264.222 285.197 263.315 285.197 262.236V253.909H287.746V261.929C287.746 262.821 287.993 263.531 288.487 264.06C288.982 264.588 289.624 264.852 290.413 264.852C290.891 264.852 291.365 264.733 291.837 264.494C292.314 264.256 292.709 263.895 293.021 263.412C293.339 262.929 293.496 262.315 293.49 261.571ZM299.471 267V253.909H301.934V255.989H302.07C302.309 255.284 302.729 254.73 303.332 254.327C303.94 253.918 304.627 253.713 305.394 253.713C305.553 253.713 305.741 253.719 305.957 253.73C306.178 253.741 306.352 253.756 306.477 253.773V256.21C306.374 256.182 306.192 256.151 305.931 256.116C305.67 256.077 305.408 256.057 305.147 256.057C304.545 256.057 304.008 256.185 303.536 256.44C303.07 256.69 302.701 257.04 302.428 257.489C302.156 257.932 302.019 258.437 302.019 259.006V267H299.471ZM321.621 249.545V267H318.979V252.188H318.877L314.701 254.915V252.392L319.056 249.545H321.621ZM336.749 264.102L326.948 254.301L328.559 252.69L338.36 262.491L336.749 264.102ZM328.559 264.102L326.948 262.491L336.749 252.69L338.36 254.301L328.559 264.102ZM348.95 249.545V267H346.308V252.188H346.205L342.029 254.915V252.392L346.384 249.545H348.95ZM360.261 267V249.545H366.483C367.841 249.545 368.966 249.793 369.858 250.287C370.75 250.781 371.418 251.457 371.861 252.315C372.304 253.168 372.526 254.128 372.526 255.196C372.526 256.27 372.301 257.236 371.852 258.094C371.409 258.946 370.739 259.622 369.841 260.122C368.949 260.616 367.827 260.864 366.474 260.864H362.196V258.631H366.236C367.094 258.631 367.79 258.483 368.324 258.188C368.858 257.886 369.25 257.477 369.5 256.96C369.75 256.443 369.875 255.855 369.875 255.196C369.875 254.537 369.75 253.952 369.5 253.44C369.25 252.929 368.855 252.528 368.315 252.239C367.781 251.949 367.077 251.804 366.202 251.804H362.895V267H360.261ZM377.957 259.227V267H375.408V249.545H377.923V256.04H378.085C378.391 255.335 378.86 254.776 379.491 254.361C380.121 253.946 380.945 253.739 381.962 253.739C382.86 253.739 383.644 253.923 384.315 254.293C384.991 254.662 385.513 255.213 385.883 255.946C386.258 256.673 386.445 257.582 386.445 258.673V267H383.897V258.98C383.897 258.02 383.65 257.276 383.156 256.747C382.661 256.213 381.974 255.946 381.093 255.946C380.491 255.946 379.951 256.074 379.474 256.33C379.002 256.585 378.63 256.96 378.357 257.455C378.09 257.943 377.957 258.534 377.957 259.227ZM395.36 267.264C394.133 267.264 393.062 266.983 392.147 266.42C391.232 265.858 390.522 265.071 390.016 264.06C389.511 263.048 389.258 261.866 389.258 260.514C389.258 259.156 389.511 257.969 390.016 256.952C390.522 255.935 391.232 255.145 392.147 254.582C393.062 254.02 394.133 253.739 395.36 253.739C396.587 253.739 397.658 254.02 398.573 254.582C399.488 255.145 400.198 255.935 400.704 256.952C401.21 257.969 401.462 259.156 401.462 260.514C401.462 261.866 401.21 263.048 400.704 264.06C400.198 265.071 399.488 265.858 398.573 266.42C397.658 266.983 396.587 267.264 395.36 267.264ZM395.369 265.125C396.164 265.125 396.823 264.915 397.346 264.494C397.869 264.074 398.255 263.514 398.505 262.815C398.761 262.116 398.888 261.347 398.888 260.506C398.888 259.67 398.761 258.903 398.505 258.205C398.255 257.5 397.869 256.935 397.346 256.509C396.823 256.082 396.164 255.869 395.369 255.869C394.567 255.869 393.903 256.082 393.374 256.509C392.852 256.935 392.462 257.5 392.207 258.205C391.957 258.903 391.832 259.67 391.832 260.506C391.832 261.347 391.957 262.116 392.207 262.815C392.462 263.514 392.852 264.074 393.374 264.494C393.903 264.915 394.567 265.125 395.369 265.125ZM410.418 253.909V255.955H403.267V253.909H410.418ZM405.185 250.773H407.733V263.156C407.733 263.651 407.807 264.023 407.955 264.273C408.102 264.517 408.293 264.685 408.526 264.776C408.764 264.861 409.023 264.903 409.301 264.903C409.506 264.903 409.685 264.889 409.838 264.861C409.991 264.832 410.111 264.81 410.196 264.793L410.656 266.898C410.509 266.955 410.298 267.011 410.026 267.068C409.753 267.131 409.412 267.165 409.003 267.17C408.332 267.182 407.707 267.062 407.128 266.812C406.548 266.562 406.08 266.176 405.722 265.653C405.364 265.131 405.185 264.474 405.185 263.685V250.773ZM418.61 267.264C417.383 267.264 416.312 266.983 415.397 266.42C414.482 265.858 413.772 265.071 413.266 264.06C412.761 263.048 412.508 261.866 412.508 260.514C412.508 259.156 412.761 257.969 413.266 256.952C413.772 255.935 414.482 255.145 415.397 254.582C416.312 254.02 417.383 253.739 418.61 253.739C419.837 253.739 420.908 254.02 421.823 254.582C422.738 255.145 423.448 255.935 423.954 256.952C424.46 257.969 424.712 259.156 424.712 260.514C424.712 261.866 424.46 263.048 423.954 264.06C423.448 265.071 422.738 265.858 421.823 266.42C420.908 266.983 419.837 267.264 418.61 267.264ZM418.619 265.125C419.414 265.125 420.073 264.915 420.596 264.494C421.119 264.074 421.505 263.514 421.755 262.815C422.011 262.116 422.138 261.347 422.138 260.506C422.138 259.67 422.011 258.903 421.755 258.205C421.505 257.5 421.119 256.935 420.596 256.509C420.073 256.082 419.414 255.869 418.619 255.869C417.817 255.869 417.153 256.082 416.624 256.509C416.102 256.935 415.712 257.5 415.457 258.205C415.207 258.903 415.082 259.67 415.082 260.506C415.082 261.347 415.207 262.116 415.457 262.815C415.712 263.514 416.102 264.074 416.624 264.494C417.153 264.915 417.817 265.125 418.619 265.125ZM429.236 267.162C428.77 267.162 428.369 266.997 428.034 266.668C427.699 266.332 427.531 265.929 427.531 265.457C427.531 264.991 427.699 264.594 428.034 264.264C428.369 263.929 428.77 263.761 429.236 263.761C429.702 263.761 430.102 263.929 430.438 264.264C430.773 264.594 430.94 264.991 430.94 265.457C430.94 265.77 430.861 266.057 430.702 266.318C430.548 266.574 430.344 266.778 430.088 266.932C429.832 267.085 429.548 267.162 429.236 267.162Z" fill="#171717"/>
<path d="M141.918 391V373.545H148.139C149.497 373.545 150.622 373.793 151.514 374.287C152.406 374.781 153.074 375.457 153.517 376.315C153.96 377.168 154.182 378.128 154.182 379.196C154.182 380.27 153.957 381.236 153.509 382.094C153.065 382.946 152.395 383.622 151.497 384.122C150.605 384.616 149.483 384.864 148.131 384.864H143.852V382.631H147.892C148.75 382.631 149.446 382.483 149.98 382.188C150.514 381.886 150.906 381.477 151.156 380.96C151.406 380.443 151.531 379.855 151.531 379.196C151.531 378.537 151.406 377.952 151.156 377.44C150.906 376.929 150.511 376.528 149.972 376.239C149.438 375.949 148.733 375.804 147.858 375.804H144.551V391H141.918ZM159.613 383.227V391H157.065V373.545H159.579V380.04H159.741C160.048 379.335 160.516 378.776 161.147 378.361C161.778 377.946 162.602 377.739 163.619 377.739C164.516 377.739 165.3 377.923 165.971 378.293C166.647 378.662 167.17 379.213 167.539 379.946C167.914 380.673 168.102 381.582 168.102 382.673V391H165.553V382.98C165.553 382.02 165.306 381.276 164.812 380.747C164.317 380.213 163.63 379.946 162.749 379.946C162.147 379.946 161.607 380.074 161.13 380.33C160.658 380.585 160.286 380.96 160.013 381.455C159.746 381.943 159.613 382.534 159.613 383.227ZM172.644 395.909C172.263 395.909 171.917 395.878 171.604 395.815C171.292 395.759 171.059 395.696 170.906 395.628L171.519 393.54C171.985 393.665 172.4 393.719 172.763 393.702C173.127 393.685 173.448 393.548 173.727 393.293C174.011 393.037 174.261 392.619 174.477 392.04L174.792 391.17L170.002 377.909H172.729L176.045 388.068H176.181L179.496 377.909H182.232L176.837 392.747C176.587 393.429 176.269 394.006 175.883 394.477C175.496 394.955 175.036 395.313 174.502 395.551C173.968 395.79 173.349 395.909 172.644 395.909ZM194.437 381.105L192.127 381.514C192.031 381.219 191.877 380.937 191.667 380.67C191.462 380.403 191.184 380.185 190.832 380.014C190.479 379.844 190.039 379.759 189.511 379.759C188.789 379.759 188.187 379.92 187.704 380.244C187.221 380.562 186.979 380.974 186.979 381.48C186.979 381.918 187.141 382.27 187.465 382.537C187.789 382.804 188.312 383.023 189.033 383.193L191.113 383.67C192.317 383.949 193.215 384.378 193.806 384.957C194.397 385.537 194.692 386.29 194.692 387.216C194.692 388 194.465 388.699 194.011 389.312C193.562 389.92 192.934 390.398 192.127 390.744C191.326 391.091 190.397 391.264 189.34 391.264C187.874 391.264 186.678 390.952 185.752 390.327C184.826 389.696 184.258 388.801 184.048 387.642L186.511 387.267C186.664 387.909 186.979 388.395 187.457 388.724C187.934 389.048 188.556 389.21 189.323 389.21C190.158 389.21 190.826 389.037 191.326 388.69C191.826 388.338 192.076 387.909 192.076 387.403C192.076 386.994 191.923 386.651 191.616 386.372C191.315 386.094 190.852 385.884 190.227 385.741L188.011 385.256C186.789 384.977 185.886 384.534 185.3 383.926C184.721 383.318 184.431 382.548 184.431 381.616C184.431 380.844 184.647 380.168 185.079 379.588C185.511 379.009 186.107 378.557 186.869 378.233C187.63 377.903 188.502 377.739 189.485 377.739C190.9 377.739 192.013 378.045 192.826 378.659C193.638 379.267 194.175 380.082 194.437 381.105ZM197.494 391V377.909H200.043V391H197.494ZM198.781 375.889C198.338 375.889 197.957 375.741 197.639 375.446C197.327 375.145 197.17 374.787 197.17 374.372C197.17 373.952 197.327 373.594 197.639 373.298C197.957 372.997 198.338 372.847 198.781 372.847C199.224 372.847 199.602 372.997 199.915 373.298C200.233 373.594 200.392 373.952 200.392 374.372C200.392 374.787 200.233 375.145 199.915 375.446C199.602 375.741 199.224 375.889 198.781 375.889ZM208.985 391.264C207.718 391.264 206.627 390.977 205.712 390.403C204.803 389.824 204.104 389.026 203.616 388.009C203.127 386.991 202.883 385.827 202.883 384.514C202.883 383.185 203.133 382.011 203.633 380.994C204.133 379.972 204.837 379.173 205.746 378.599C206.656 378.026 207.727 377.739 208.96 377.739C209.954 377.739 210.84 377.923 211.619 378.293C212.397 378.656 213.025 379.168 213.502 379.827C213.985 380.486 214.272 381.256 214.363 382.136H211.883C211.746 381.523 211.434 380.994 210.945 380.551C210.462 380.108 209.815 379.886 209.002 379.886C208.292 379.886 207.67 380.074 207.136 380.449C206.607 380.818 206.195 381.347 205.9 382.034C205.604 382.716 205.457 383.523 205.457 384.455C205.457 385.409 205.602 386.233 205.891 386.926C206.181 387.619 206.59 388.156 207.119 388.537C207.653 388.918 208.281 389.108 209.002 389.108C209.485 389.108 209.923 389.02 210.315 388.844C210.712 388.662 211.045 388.403 211.312 388.068C211.585 387.733 211.775 387.33 211.883 386.858H214.363C214.272 387.705 213.996 388.46 213.536 389.125C213.076 389.79 212.46 390.312 211.687 390.693C210.92 391.074 210.019 391.264 208.985 391.264ZM220.898 391.29C220.068 391.29 219.318 391.136 218.648 390.83C217.977 390.517 217.446 390.065 217.054 389.474C216.668 388.884 216.474 388.159 216.474 387.301C216.474 386.562 216.616 385.955 216.901 385.477C217.185 385 217.568 384.622 218.051 384.344C218.534 384.065 219.074 383.855 219.67 383.713C220.267 383.571 220.875 383.463 221.494 383.389C222.278 383.298 222.915 383.224 223.403 383.168C223.892 383.105 224.247 383.006 224.469 382.869C224.69 382.733 224.801 382.511 224.801 382.205V382.145C224.801 381.401 224.591 380.824 224.17 380.415C223.756 380.006 223.136 379.801 222.312 379.801C221.455 379.801 220.778 379.991 220.284 380.372C219.795 380.747 219.457 381.165 219.27 381.625L216.875 381.08C217.159 380.284 217.574 379.642 218.119 379.153C218.67 378.659 219.304 378.301 220.02 378.08C220.736 377.852 221.489 377.739 222.278 377.739C222.801 377.739 223.355 377.801 223.94 377.926C224.531 378.045 225.082 378.267 225.594 378.591C226.111 378.915 226.534 379.378 226.864 379.98C227.193 380.577 227.358 381.352 227.358 382.307V391H224.869V389.21H224.767C224.602 389.54 224.355 389.864 224.026 390.182C223.696 390.5 223.273 390.764 222.756 390.974C222.239 391.185 221.619 391.29 220.898 391.29ZM221.452 389.244C222.156 389.244 222.759 389.105 223.259 388.827C223.764 388.548 224.148 388.185 224.409 387.736C224.676 387.281 224.81 386.795 224.81 386.278V384.591C224.719 384.682 224.543 384.767 224.281 384.847C224.026 384.92 223.733 384.986 223.403 385.043C223.074 385.094 222.753 385.142 222.44 385.188C222.128 385.227 221.866 385.261 221.656 385.29C221.162 385.352 220.71 385.457 220.301 385.605C219.898 385.753 219.574 385.966 219.33 386.244C219.091 386.517 218.972 386.881 218.972 387.335C218.972 387.966 219.205 388.443 219.67 388.767C220.136 389.085 220.73 389.244 221.452 389.244ZM233.3 373.545V391H230.752V373.545H233.3ZM243.285 391V373.545H249.677C250.915 373.545 251.941 373.75 252.754 374.159C253.566 374.562 254.174 375.111 254.577 375.804C254.981 376.491 255.183 377.267 255.183 378.131C255.183 378.858 255.049 379.472 254.782 379.972C254.515 380.466 254.157 380.864 253.708 381.165C253.265 381.46 252.776 381.676 252.242 381.812V381.983C252.822 382.011 253.387 382.199 253.938 382.545C254.495 382.886 254.955 383.372 255.319 384.003C255.683 384.634 255.864 385.401 255.864 386.304C255.864 387.196 255.654 387.997 255.234 388.707C254.819 389.412 254.177 389.972 253.308 390.386C252.438 390.795 251.327 391 249.975 391H243.285ZM245.918 388.741H249.719C250.981 388.741 251.884 388.497 252.43 388.009C252.975 387.52 253.248 386.909 253.248 386.176C253.248 385.625 253.109 385.119 252.83 384.659C252.552 384.199 252.154 383.832 251.637 383.56C251.126 383.287 250.518 383.151 249.813 383.151H245.918V388.741ZM245.918 381.097H249.447C250.038 381.097 250.569 380.983 251.04 380.756C251.518 380.528 251.896 380.21 252.174 379.801C252.458 379.386 252.6 378.898 252.6 378.335C252.6 377.614 252.347 377.009 251.842 376.52C251.336 376.031 250.56 375.787 249.515 375.787H245.918V381.097ZM267.076 385.571V377.909H269.633V391H267.127V388.733H266.991C266.69 389.432 266.207 390.014 265.542 390.48C264.883 390.94 264.062 391.17 263.079 391.17C262.238 391.17 261.494 390.986 260.846 390.616C260.204 390.241 259.698 389.688 259.329 388.955C258.965 388.222 258.783 387.315 258.783 386.236V377.909H261.332V385.929C261.332 386.821 261.579 387.531 262.073 388.06C262.567 388.588 263.21 388.852 263.999 388.852C264.477 388.852 264.951 388.733 265.423 388.494C265.9 388.256 266.295 387.895 266.607 387.412C266.925 386.929 267.082 386.315 267.076 385.571ZM275.401 386.56L275.384 383.449H275.827L281.043 377.909H284.094L278.145 384.216H277.744L275.401 386.56ZM273.057 391V373.545H275.605V391H273.057ZM281.324 391L276.636 384.778L278.392 382.997L284.452 391H281.324ZM296.141 378.131C296.05 377.324 295.675 376.699 295.016 376.256C294.357 375.807 293.527 375.582 292.527 375.582C291.811 375.582 291.192 375.696 290.669 375.923C290.146 376.145 289.74 376.452 289.45 376.844C289.166 377.23 289.024 377.67 289.024 378.165C289.024 378.58 289.121 378.937 289.314 379.239C289.513 379.54 289.771 379.793 290.089 379.997C290.413 380.196 290.76 380.364 291.129 380.5C291.499 380.631 291.854 380.739 292.195 380.824L293.899 381.267C294.456 381.403 295.027 381.588 295.612 381.821C296.197 382.054 296.74 382.361 297.24 382.741C297.74 383.122 298.143 383.594 298.45 384.156C298.763 384.719 298.919 385.392 298.919 386.176C298.919 387.165 298.663 388.043 298.152 388.81C297.646 389.577 296.911 390.182 295.945 390.625C294.984 391.068 293.822 391.29 292.459 391.29C291.152 391.29 290.021 391.082 289.067 390.668C288.112 390.253 287.365 389.665 286.825 388.903C286.286 388.136 285.987 387.227 285.93 386.176H288.572C288.624 386.807 288.828 387.332 289.186 387.753C289.55 388.168 290.013 388.477 290.575 388.682C291.143 388.881 291.766 388.98 292.442 388.98C293.186 388.98 293.848 388.864 294.428 388.631C295.013 388.392 295.473 388.062 295.808 387.642C296.143 387.216 296.311 386.719 296.311 386.151C296.311 385.634 296.163 385.21 295.868 384.881C295.578 384.551 295.183 384.278 294.683 384.062C294.189 383.847 293.629 383.656 293.004 383.491L290.942 382.929C289.544 382.548 288.436 381.989 287.618 381.25C286.805 380.511 286.399 379.534 286.399 378.318C286.399 377.312 286.672 376.435 287.217 375.685C287.763 374.935 288.501 374.352 289.433 373.938C290.365 373.517 291.416 373.307 292.587 373.307C293.768 373.307 294.811 373.514 295.714 373.929C296.624 374.344 297.339 374.915 297.862 375.642C298.385 376.364 298.658 377.193 298.68 378.131H296.141ZM313.29 373.545H315.933V385.026C315.933 386.247 315.646 387.33 315.072 388.273C314.498 389.21 313.691 389.949 312.651 390.489C311.612 391.023 310.393 391.29 308.995 391.29C307.603 391.29 306.387 391.023 305.347 390.489C304.308 389.949 303.501 389.21 302.927 388.273C302.353 387.33 302.066 386.247 302.066 385.026V373.545H304.7V384.812C304.7 385.602 304.873 386.304 305.219 386.918C305.572 387.531 306.069 388.014 306.711 388.366C307.353 388.713 308.114 388.886 308.995 388.886C309.881 388.886 310.646 388.713 311.288 388.366C311.935 388.014 312.43 387.531 312.771 386.918C313.117 386.304 313.29 385.602 313.29 384.812V373.545ZM328.746 373.545V391H326.113V373.545H328.746ZM338.232 391H332.582V373.545H338.411C340.121 373.545 341.59 373.895 342.817 374.594C344.045 375.287 344.985 376.284 345.638 377.585C346.298 378.881 346.627 380.435 346.627 382.247C346.627 384.065 346.295 385.628 345.63 386.935C344.971 388.241 344.016 389.247 342.766 389.952C341.516 390.651 340.005 391 338.232 391ZM335.215 388.699H338.087C339.417 388.699 340.522 388.449 341.403 387.949C342.283 387.443 342.942 386.713 343.38 385.759C343.817 384.798 344.036 383.628 344.036 382.247C344.036 380.878 343.817 379.716 343.38 378.761C342.948 377.807 342.303 377.082 341.445 376.588C340.587 376.094 339.522 375.847 338.249 375.847H335.215V388.699Z" fill="#171717"/>
<path d="M52.824 154H40.792V125.84H31V116.432H33.112C35.1173 116.432 36.8027 116.027 38.168 115.216C39.5333 114.405 40.6853 113.04 41.624 111.12H52.824V154ZM74.142 154H61.15L70.942 137.616V137.04L61.15 121.104H74.59L80.286 131.152H80.862L86.174 121.104H99.166L89.374 137.424V138L99.166 154H85.662L80.03 144.208H79.454L74.142 154Z" fill="#171717"/>
<path d="M68.12 278H32.984V271.28C32.984 268.592 33.3893 266.416 34.2 264.752C35.0107 263.088 36.12 261.723 37.528 260.656C38.9787 259.589 40.6213 258.608 42.456 257.712L53.848 252.144C54.488 251.845 55 251.568 55.384 251.312C55.768 251.013 56.0453 250.672 56.216 250.288C56.3867 249.861 56.472 249.328 56.472 248.688C56.472 247.877 56.3013 247.237 55.96 246.768C55.6187 246.299 55.0213 245.957 54.168 245.744C53.3147 245.531 52.12 245.424 50.584 245.424C48.8773 245.424 47.5973 245.573 46.744 245.872C45.8907 246.171 45.3147 246.661 45.016 247.344C44.76 247.984 44.632 248.859 44.632 249.968V251.12H32.6V250.096C32.6 247.237 33.2187 244.635 34.456 242.288C35.736 239.899 37.7627 238 40.536 236.592C43.3093 235.184 46.9787 234.48 51.544 234.48C55.512 234.48 58.7333 235.099 61.208 236.336C63.7253 237.573 65.56 239.259 66.712 241.392C67.9067 243.483 68.504 245.829 68.504 248.432C68.504 251.163 67.928 253.445 66.776 255.28C65.624 257.072 64.152 258.544 62.36 259.696C60.568 260.805 58.7333 261.68 56.856 262.32L48.856 265.008C47.6187 265.435 46.8293 265.861 46.488 266.288C46.1467 266.715 45.976 267.227 45.976 267.824L52.12 267.184H68.12V278ZM82.8045 278H69.8125L79.6045 261.616V261.04L69.8125 245.104H83.2525L88.9485 255.152H89.5245L94.8365 245.104H107.829L98.0365 261.424V262L107.829 278H94.3245L88.6925 268.208H88.1165L82.8045 278Z" fill="#171717"/>
<path d="M52.824 402H40.792V373.84H31V364.432H33.112C35.1173 364.432 36.8027 364.027 38.168 363.216C39.5333 362.405 40.6853 361.04 41.624 359.12H52.824V402ZM74.142 402H61.15L70.942 385.616V385.04L61.15 369.104H74.59L80.286 379.152H80.862L86.174 369.104H99.166L89.374 385.424V386L99.166 402H85.662L80.03 392.208H79.454L74.142 402Z" fill="#171717"/>
</svg>
