<svg width="323" height="44" viewBox="0 0 323 44" fill="none" xmlns="http://www.w3.org/2000/svg">
<line y1="21.5" x2="323.002" y2="21.5" stroke="black"/>
<rect x="80" width="158" height="44" fill="white"/>
<path d="M102.227 30V12.5455H108.448C109.801 12.5455 110.923 12.7784 111.815 13.2443C112.712 13.7102 113.383 14.3551 113.826 15.179C114.269 15.9972 114.491 16.9432 114.491 18.017C114.491 19.0852 114.266 20.0256 113.818 20.8381C113.374 21.6449 112.704 22.2727 111.806 22.7216C110.914 23.1705 109.792 23.3949 108.44 23.3949H103.727V21.1278H108.201C109.053 21.1278 109.747 21.0057 110.281 20.7614C110.82 20.517 111.215 20.1619 111.465 19.696C111.715 19.2301 111.84 18.6705 111.84 18.017C111.84 17.358 111.712 16.7869 111.457 16.304C111.207 15.821 110.812 15.4517 110.272 15.196C109.738 14.9347 109.036 14.804 108.167 14.804H104.86V30H102.227ZM110.843 22.125L115.156 30H112.156L107.928 22.125H110.843ZM119.855 30V12.5455H130.799V14.8125H122.489V20.1307H130.228V22.3892H122.489V27.733H130.901V30H119.855ZM145.996 17.1307C145.905 16.3239 145.53 15.6989 144.871 15.2557C144.212 14.8068 143.383 14.5824 142.383 14.5824C141.667 14.5824 141.047 14.696 140.525 14.9233C140.002 15.1449 139.596 15.4517 139.306 15.8438C139.022 16.2301 138.88 16.6705 138.88 17.1648C138.88 17.5795 138.976 17.9375 139.17 18.2386C139.368 18.5398 139.627 18.7926 139.945 18.9972C140.269 19.196 140.616 19.3636 140.985 19.5C141.354 19.6307 141.709 19.7386 142.05 19.8239L143.755 20.267C144.312 20.4034 144.883 20.5881 145.468 20.821C146.053 21.054 146.596 21.3608 147.096 21.7415C147.596 22.1222 147.999 22.5938 148.306 23.1562C148.618 23.7188 148.775 24.392 148.775 25.1761C148.775 26.1648 148.519 27.0426 148.008 27.8097C147.502 28.5767 146.766 29.1818 145.8 29.625C144.84 30.0682 143.678 30.2898 142.314 30.2898C141.008 30.2898 139.877 30.0824 138.922 29.6676C137.968 29.2528 137.221 28.6648 136.681 27.9034C136.141 27.1364 135.843 26.2273 135.786 25.1761H138.428C138.479 25.8068 138.684 26.3324 139.042 26.7528C139.405 27.1676 139.868 27.4773 140.431 27.6818C140.999 27.8807 141.621 27.9801 142.297 27.9801C143.042 27.9801 143.704 27.8636 144.283 27.6307C144.868 27.392 145.329 27.0625 145.664 26.642C145.999 26.2159 146.167 25.7187 146.167 25.1506C146.167 24.6335 146.019 24.2102 145.724 23.8807C145.434 23.5511 145.039 23.2784 144.539 23.0625C144.045 22.8466 143.485 22.6562 142.86 22.4915L140.797 21.929C139.4 21.5483 138.292 20.9886 137.474 20.25C136.661 19.5114 136.255 18.5341 136.255 17.3182C136.255 16.3125 136.528 15.4347 137.073 14.6847C137.618 13.9347 138.357 13.3523 139.289 12.9375C140.221 12.517 141.272 12.3068 142.442 12.3068C143.624 12.3068 144.667 12.5142 145.57 12.929C146.479 13.3438 147.195 13.9148 147.718 14.642C148.241 15.3636 148.513 16.1932 148.536 17.1307H145.996ZM165.306 12.5455H167.948V24.0256C167.948 25.2472 167.661 26.3295 167.087 27.2727C166.513 28.2102 165.707 28.9489 164.667 29.4886C163.627 30.0227 162.408 30.2898 161.011 30.2898C159.619 30.2898 158.403 30.0227 157.363 29.4886C156.323 28.9489 155.516 28.2102 154.942 27.2727C154.369 26.3295 154.082 25.2472 154.082 24.0256V12.5455H156.715V23.8125C156.715 24.6023 156.888 25.304 157.235 25.9176C157.587 26.5312 158.085 27.0142 158.727 27.3665C159.369 27.7131 160.13 27.8864 161.011 27.8864C161.897 27.8864 162.661 27.7131 163.303 27.3665C163.951 27.0142 164.445 26.5312 164.786 25.9176C165.133 25.304 165.306 24.6023 165.306 23.8125V12.5455ZM173.937 30V12.5455H176.571V27.733H184.48V30H173.937ZM186.51 14.8125V12.5455H200.018V14.8125H194.572V30H191.947V14.8125H186.51ZM214.683 17.1307C214.592 16.3239 214.217 15.6989 213.558 15.2557C212.899 14.8068 212.069 14.5824 211.069 14.5824C210.354 14.5824 209.734 14.696 209.212 14.9233C208.689 15.1449 208.283 15.4517 207.993 15.8438C207.709 16.2301 207.567 16.6705 207.567 17.1648C207.567 17.5795 207.663 17.9375 207.856 18.2386C208.055 18.5398 208.314 18.7926 208.632 18.9972C208.956 19.196 209.302 19.3636 209.672 19.5C210.041 19.6307 210.396 19.7386 210.737 19.8239L212.442 20.267C212.998 20.4034 213.569 20.5881 214.155 20.821C214.74 21.054 215.283 21.3608 215.783 21.7415C216.283 22.1222 216.686 22.5938 216.993 23.1562C217.305 23.7188 217.462 24.392 217.462 25.1761C217.462 26.1648 217.206 27.0426 216.694 27.8097C216.189 28.5767 215.453 29.1818 214.487 29.625C213.527 30.0682 212.365 30.2898 211.001 30.2898C209.694 30.2898 208.564 30.0824 207.609 29.6676C206.655 29.2528 205.908 28.6648 205.368 27.9034C204.828 27.1364 204.53 26.2273 204.473 25.1761H207.115C207.166 25.8068 207.371 26.3324 207.729 26.7528C208.092 27.1676 208.555 27.4773 209.118 27.6818C209.686 27.8807 210.308 27.9801 210.984 27.9801C211.729 27.9801 212.391 27.8636 212.97 27.6307C213.555 27.392 214.016 27.0625 214.351 26.642C214.686 26.2159 214.854 25.7187 214.854 25.1506C214.854 24.6335 214.706 24.2102 214.41 23.8807C214.121 23.5511 213.726 23.2784 213.226 23.0625C212.731 22.8466 212.172 22.6562 211.547 22.4915L209.484 21.929C208.087 21.5483 206.979 20.9886 206.16 20.25C205.348 19.5114 204.942 18.5341 204.942 17.3182C204.942 16.3125 205.214 15.4347 205.76 14.6847C206.305 13.9347 207.044 13.3523 207.976 12.9375C208.908 12.517 209.959 12.3068 211.129 12.3068C212.311 12.3068 213.354 12.5142 214.257 12.929C215.166 13.3438 215.882 13.9148 216.405 14.642C216.927 15.3636 217.2 16.1932 217.223 17.1307H214.683Z" fill="black"/>
</svg>
